<?xml version="1.0" encoding="UTF-8" standalone="no"?>
<!-- Created with Inkscape (http://www.inkscape.org/) -->

<svg
   width="96"
   height="96"
   viewBox="0 0 25.399999 25.399999"
   version="1.1"
   id="svg1"
   inkscape:version="1.4.4 (dcaf3e7d9e, 2026-05-05)"
   sodipodi:docname="transports_new.svg"
   xml:space="preserve"
   xmlns:inkscape="http://www.inkscape.org/namespaces/inkscape"
   xmlns:sodipodi="http://sodipodi.sourceforge.net/DTD/sodipodi-0.dtd"
   xmlns:xlink="http://www.w3.org/1999/xlink"
   xmlns="http://www.w3.org/2000/svg"
   xmlns:svg="http://www.w3.org/2000/svg"><sodipodi:namedview
     id="namedview1"
     pagecolor="#ffffff"
     bordercolor="#000000"
     borderopacity="0.25"
     inkscape:showpageshadow="false"
     inkscape:pageopacity="0.0"
     inkscape:pagecheckerboard="0"
     inkscape:deskcolor="#d1d1d1"
     inkscape:document-units="px"
     inkscape:zoom="11.313709"
     inkscape:cx="-5.1265241"
     inkscape:cy="35.79728"
     inkscape:window-width="3394"
     inkscape:window-height="1404"
     inkscape:window-x="2606"
     inkscape:window-y="0"
     inkscape:window-maximized="1"
     inkscape:current-layer="layer1"
     showgrid="false" /><defs
     id="defs1"><linearGradient
       id="linearGradient39"
       inkscape:collect="always"><stop
         style="stop-color:#1a1a1a;stop-opacity:1"
         offset="0"
         id="stop38" /><stop
         style="stop-color:#b3b3b3;stop-opacity:1"
         offset="1"
         id="stop39" /></linearGradient><linearGradient
       id="linearGradient2"
       inkscape:collect="always"><stop
         style="stop-color:#1a1a1a;stop-opacity:1"
         offset="0"
         id="stop26" /><stop
         style="stop-color:#b3b3b3;stop-opacity:1"
         offset="1"
         id="stop27" /></linearGradient><linearGradient
       id="linearGradient36"
       inkscape:collect="always"><stop
         style="stop-color:#ece7d5;stop-opacity:1"
         offset="0"
         id="stop36" /><stop
         style="stop-color:#d7cda8;stop-opacity:1;"
         offset="1"
         id="stop37" /></linearGradient><linearGradient
       id="linearGradient35"
       inkscape:collect="always"><stop
         style="stop-color:#28b62c;stop-opacity:1"
         offset="0"
         id="stop34" /><stop
         style="stop-color:#209223;stop-opacity:1;"
         offset="1"
         id="stop35" /></linearGradient><linearGradient
       id="linearGradient32"
       inkscape:collect="always"><stop
         style="stop-color:#d40000;stop-opacity:1;"
         offset="0"
         id="stop32" /><stop
         style="stop-color:#ff8080;stop-opacity:1"
         offset="1"
         id="stop33" /></linearGradient><linearGradient
       id="linearGradient31"
       inkscape:collect="always"><stop
         style="stop-color:#70dc72;stop-opacity:1;"
         offset="0"
         id="stop30" /><stop
         style="stop-color:#c8f4c9;stop-opacity:1;"
         offset="1"
         id="stop31" /></linearGradient><linearGradient
       id="linearGradient29"
       inkscape:collect="always"><stop
         style="stop-color:#34a738;stop-opacity:1;"
         offset="0"
         id="stop28" /><stop
         style="stop-color:#9ee5a0;stop-opacity:1;"
         offset="1"
         id="stop29" /></linearGradient><linearGradient
       id="linearGradient24"
       inkscape:collect="always"><stop
         style="stop-color:#333333;stop-opacity:1"
         offset="0"
         id="stop24" /><stop
         style="stop-color:#000000;stop-opacity:1"
         offset="1"
         id="stop25" /></linearGradient><linearGradient
       id="linearGradient22"
       inkscape:collect="always"><stop
         style="stop-color:#28b62c;stop-opacity:1"
         offset="0"
         id="stop22" /><stop
         style="stop-color:#8adf8c;stop-opacity:1"
         offset="1"
         id="stop23" /></linearGradient><linearGradient
       id="linearGradient20"
       inkscape:collect="always"><stop
         style="stop-color:#2bb72f;stop-opacity:1"
         offset="0"
         id="stop20" /><stop
         style="stop-color:#a6eba8;stop-opacity:1"
         offset="1"
         id="stop21" /></linearGradient><linearGradient
       id="linearGradient1"
       inkscape:collect="always"><stop
         style="stop-color:#28b62c;stop-opacity:1"
         offset="0"
         id="stop18" /><stop
         style="stop-color:#a7eca9;stop-opacity:1;"
         offset="1"
         id="stop19" /></linearGradient><linearGradient
       id="linearGradient15"
       inkscape:collect="always"><stop
         style="stop-color:#ffffff;stop-opacity:1"
         offset="0"
         id="stop15" /><stop
         style="stop-color:#ffd91b;stop-opacity:1"
         offset="0.73395813"
         id="stop17" /><stop
         style="stop-color:#ff851b;stop-opacity:1"
         offset="1"
         id="stop16" /></linearGradient><linearGradient
       id="a"><stop
         stop-color="#d600b3"
         offset="0"
         id="stop1" /><stop
         stop-color="#6cb3d1"
         offset="1"
         id="stop2" /></linearGradient><linearGradient
       id="e"
       x1="186.74001"
       x2="98.158997"
       y1="-149.33"
       y2="-60.751999"
       gradientUnits="userSpaceOnUse"
       gradientTransform="matrix(0.26458333,0,0,0.26458333,-430.42844,92.474155)"><stop
         stop-color="#b00067"
         offset="0"
         id="stop3"
         style="stop-color:#75caeb;stop-opacity:1" /><stop
         stop-color="#4300b0"
         offset="1"
         id="stop4"
         style="stop-color:#158cba;stop-opacity:1" /></linearGradient><linearGradient
       id="d"
       x1="-41.208"
       x2="183.06"
       y1="-262.01999"
       y2="-291.66"
       gradientUnits="userSpaceOnUse"
       gradientTransform="matrix(0.26458333,0,0,0.26458333,-184.73764,58.412459)"><stop
         stop-color="#ee65c3"
         offset="0"
         id="stop5" /><stop
         stop-color="#d6d7f7"
         offset="1"
         id="stop6" /></linearGradient><linearGradient
       id="c"
       x1="309.94"
       x2="213.73"
       y1="-115.34"
       y2="-85.000999"
       gradientUnits="userSpaceOnUse"
       gradientTransform="matrix(0.26458333,0,0,0.26458333,-184.73764,58.412459)"><stop
         stop-color="#54d2ff"
         offset="0"
         id="stop7" /><stop
         stop-color="#25389f"
         stop-opacity=".513"
         offset="1"
         id="stop8" /></linearGradient><linearGradient
       id="b"
       x1="2.4642"
       x2="116.7"
       y1="-291.66"
       y2="-373.39001"
       gradientUnits="userSpaceOnUse"
       gradientTransform="matrix(0.26458333,0,0,0.26458333,-186.6456,-2.3048318)"><stop
         stop-color="#52305e"
         offset="0"
         id="stop9"
         style="stop-color:#0d5b77;stop-opacity:1;" /><stop
         stop-color="#2b23ab"
         offset="1"
         id="stop10"
         style="stop-color:#158cba;stop-opacity:1" /></linearGradient><linearGradient
       id="h"
       x2="0"
       y1="-54.557999"
       y2="264.34"
       gradientUnits="userSpaceOnUse"><stop
         stop-color="#2f7bcc"
         offset="0"
         id="stop11" /><stop
         stop-color="#791912"
         stop-opacity=".6558"
         offset="1"
         id="stop12" /></linearGradient><linearGradient
       id="g"
       x1="53.818001"
       x2="210.81"
       y1="177.67"
       y2="98.266998"
       gradientUnits="userSpaceOnUse"
       gradientTransform="matrix(0.26458333,0,0,0.26458333,-186.89135,-8.8525611)"><stop
         stop-color="#ffb9ff"
         offset="0"
         id="stop13" /><stop
         stop-color="#fff"
         offset="1"
         id="stop14" /></linearGradient><linearGradient
       id="f"
       x1="133.59"
       x2="169.03"
       y1="-43.035"
       y2="-273.35001"
       gradientUnits="userSpaceOnUse"
       xlink:href="#a"
       gradientTransform="matrix(0.26458333,0,0,0.26458333,-184.73764,58.412459)" /><linearGradient
       id="i"
       x2="0"
       y1="282.06"
       y2="69.457001"
       gradientUnits="userSpaceOnUse"
       xlink:href="#a"
       gradientTransform="matrix(0.26458333,0,0,0.26458333,-186.89135,-8.8525611)" /><radialGradient
       inkscape:collect="always"
       xlink:href="#linearGradient15"
       id="radialGradient16"
       cx="5.5822344"
       cy="4.6841183"
       fx="5.5822344"
       fy="4.6841183"
       r="7.6729164"
       gradientUnits="userSpaceOnUse"
       gradientTransform="matrix(0.44918027,1.5577735,-1.6629927,0.47952,12.770944,-0.47671865)" /><linearGradient
       inkscape:collect="always"
       xlink:href="#linearGradient1"
       id="linearGradient19"
       x1="37.661766"
       y1="10.273517"
       x2="29.090275"
       y2="12.000162"
       gradientUnits="userSpaceOnUse"
       gradientTransform="matrix(1.223342,0,0,1.223342,-35.24046,0.3889295)" /><linearGradient
       inkscape:collect="always"
       xlink:href="#linearGradient20"
       id="linearGradient21"
       x1="36.671883"
       y1="6.6410322"
       x2="29.061007"
       y2="11.11339"
       gradientUnits="userSpaceOnUse"
       gradientTransform="matrix(1.223342,0,0,1.223342,-35.24046,0.3889295)" /><linearGradient
       inkscape:collect="always"
       xlink:href="#linearGradient22"
       id="linearGradient23"
       x1="37.491684"
       y1="5.7123575"
       x2="30.890165"
       y2="9.9082956"
       gradientUnits="userSpaceOnUse"
       gradientTransform="matrix(1.223342,0,0,1.223342,-35.24046,0.3889295)" /><linearGradient
       inkscape:collect="always"
       xlink:href="#linearGradient24"
       id="linearGradient25"
       x1="36.671883"
       y1="11.11339"
       x2="29.07478"
       y2="12.200571"
       gradientUnits="userSpaceOnUse"
       gradientTransform="matrix(1.223342,0,0,1.223342,-35.24046,0.3889295)" /><linearGradient
       inkscape:collect="always"
       xlink:href="#linearGradient29"
       id="linearGradient28"
       x1="-17.842896"
       y1="13.215156"
       x2="-24.211321"
       y2="14.299902"
       gradientUnits="userSpaceOnUse"
       gradientTransform="translate(27.384296,0.7146486)" /><linearGradient
       inkscape:collect="always"
       xlink:href="#linearGradient31"
       id="linearGradient30"
       gradientUnits="userSpaceOnUse"
       x1="-18.105537"
       y1="13.247185"
       x2="-24.307409"
       y2="14.338337"
       gradientTransform="matrix(0.22817,0,0,0.22817,6.099084,12.160552)" /><linearGradient
       inkscape:collect="always"
       xlink:href="#linearGradient32"
       id="linearGradient33"
       x1="-17.603874"
       y1="11.909363"
       x2="-26.905687"
       y2="14.575377"
       gradientUnits="userSpaceOnUse"
       gradientTransform="translate(27.384296,0.7146486)" /><linearGradient
       inkscape:collect="always"
       xlink:href="#linearGradient35"
       id="linearGradient34"
       x1="-16.172655"
       y1="13.262239"
       x2="-4.3490882"
       y2="13.229166"
       gradientUnits="userSpaceOnUse"
       gradientTransform="translate(27.384296,0.7146486)" /><linearGradient
       inkscape:collect="always"
       xlink:href="#linearGradient36"
       id="linearGradient37"
       x1="-16.194862"
       y1="7.6121697"
       x2="-5.4957294"
       y2="8.0331192"
       gradientUnits="userSpaceOnUse"
       gradientTransform="translate(27.384296,0.7146486)" /><linearGradient
       inkscape:collect="always"
       xlink:href="#linearGradient2"
       id="linearGradient27"
       x1="19.131348"
       y1="9.4222841"
       x2="19.131348"
       y2="8.5651531"
       gradientUnits="userSpaceOnUse" /><linearGradient
       inkscape:collect="always"
       xlink:href="#linearGradient39"
       id="linearGradient38"
       x1="19.131348"
       y1="9.4222841"
       x2="19.131348"
       y2="8.5651531"
       gradientUnits="userSpaceOnUse" /></defs><g
     inkscape:label="Layer 1"
     inkscape:groupmode="layer"
     id="layer1"><path
       style="fill:url(#radialGradient16);fill-opacity:1;stroke-width:1.57521;stroke-linecap:round;stroke-linejoin:round;paint-order:stroke markers fill"
       id="path15"
       sodipodi:type="arc"
       sodipodi:cx="11.112501"
       sodipodi:cy="13.229166"
       sodipodi:rx="9.1362238"
       sodipodi:ry="9.1362238"
       sodipodi:start="6.2350843"
       sodipodi:end="6.2267791"
       sodipodi:open="true"
       sodipodi:arc-type="arc"
       d="M 20.238158,12.789874 A 9.1362238,9.1362238 0 0 1 11.57074,22.353891 9.1362238,9.1362238 0 0 1 1.9887475,13.706349 9.1362238,9.1362238 0 0 1 10.616375,4.1064228 9.1362238,9.1362238 0 0 1 20.234195,12.7141" /><path
       style="fill:url(#linearGradient19);fill-opacity:1;stroke-width:1.61838;stroke-linecap:round;stroke-linejoin:round;paint-order:stroke markers fill"
       d="M 11.184404,7.9023967 0.386254,14.04135 0.351514,15.72248 11.602421,18.218598 C 11.119474,14.985388 11.308102,11.350487 11.184407,7.9023967 Z"
       id="path1"
       sodipodi:nodetypes="ccccc" /><path
       style="fill:url(#linearGradient34);fill-opacity:1;stroke-width:1.62128;stroke-linecap:round;stroke-linejoin:round;paint-order:stroke markers fill"
       d="m 22.381662,11.557729 c 0.174221,0.666355 0.336476,1.483994 0.573396,2.108879 0.34237,0.903025 0.594679,3.51979 -1.289349,4.522994 -3.575337,0.886465 -6.696752,0.578936 -10.104871,0.02899 -0.309529,-2.66241 -0.338497,-5.224442 -0.372748,-7.368233 0,0 11.176045,0.640328 11.193572,0.707367 z"
       id="path25"
       sodipodi:nodetypes="ssccss" /><path
       style="fill:url(#linearGradient37);fill-opacity:1;stroke-width:1.61838;stroke-linecap:round;stroke-linejoin:round;paint-order:stroke markers fill"
       d="m 11.236911,10.892868 -0.05249,-2.9904715 c -0.08629,-0.8761839 0.170726,-1.4376667 0.771053,-1.6844486 2.500555,-1.3060627 6.484018,-1.0624618 8.817688,0.4518636 0.49651,0.3650787 0.830901,0.9304216 1.003174,1.6960286 L 22.381681,11.557729 13.339104,11.4023 c -1.197984,0 -1.873512,-0.0493 -2.102189,-0.509432 z"
       id="path26"
       sodipodi:nodetypes="cccccccc" /><path
       style="fill:url(#linearGradient21);fill-opacity:1;stroke-width:1.61838;stroke-linecap:round;stroke-linejoin:round;paint-order:stroke markers fill"
       d="M 9.621796,8.3217251 1.342002,13.278727 0.31109,13.984407 C 3.399653,12.56327 6.527229,10.518352 9.621796,8.7046412 Z"
       id="path19"
       sodipodi:nodetypes="ccccc" /><path
       style="fill:url(#linearGradient23);fill-opacity:1;stroke-width:1.61838;stroke-linecap:round;stroke-linejoin:round;paint-order:stroke markers fill"
       d="m 10.637107,7.2157857 c -2.681011,1.591894 -5.362879,3.2807883 -7.982202,5.1238653 -0.09646,0.08277 -0.128858,0.158791 -0.09719,0.228071 l 8.06179,-5.1385096 z"
       id="path21"
       sodipodi:nodetypes="ccccc" /><path
       style="fill:url(#linearGradient28);fill-opacity:1;stroke-width:1.32292;stroke-linecap:round;stroke-linejoin:round;paint-order:stroke markers fill"
       d="M 3.086156,14.641061 9.271775,12.94557 9.66865,13.307162 9.271775,15.249099 3.086156,15.564811 c 0,0 -3.41e-4,-0.913966 0,-0.92375 z"
       id="path27"
       sodipodi:nodetypes="cccccc" /><path
       style="fill:url(#linearGradient30);fill-opacity:1;stroke-width:0.301851;stroke-linecap:round;stroke-linejoin:round;paint-order:stroke markers fill"
       d="M 0.554977,15.338141 1.96635,14.951282 v 0.525591 l -1.411373,0.07204 c -0.0026,-0.07494 7.31e-4,-0.1406 0,-0.210772 z"
       id="path29"
       sodipodi:nodetypes="ccccc" /><path
       style="fill:url(#linearGradient33);fill-opacity:1;stroke:none;stroke-width:0.0264583;stroke-linecap:round;stroke-linejoin:round;stroke-dasharray:none;paint-order:stroke markers fill"
       d="m 9.780422,12.54216 v 0.13447 l -9.295968,2.595855 z"
       id="path32" /><path
       style="fill:none;fill-opacity:1;stroke:#d40000;stroke-width:0.264583;stroke-linecap:round;stroke-linejoin:round;stroke-dasharray:none;paint-order:stroke markers fill"
       d="m 22.40306,11.542405 -9.085493,-0.140316 c -1.555306,-0.01103 -2.123056,-0.173108 -2.128133,-0.713276"
       id="path37"
       sodipodi:nodetypes="ccc" /><path
       style="fill:url(#linearGradient38);fill-opacity:1;stroke:none;stroke-width:0.264583;stroke-linecap:round;stroke-linejoin:round;stroke-dasharray:none;paint-order:stroke markers fill"
       d="m 15.096912,7.955639 0.269788,1.3092223 1.821307,0.058461 -0.284642,-1.311275 c -0.675668,-0.08143 -1.307052,-0.072949 -1.806453,-0.056408 z"
       id="path38"
       sodipodi:nodetypes="ccccc" /><path
       style="fill:url(#linearGradient27);fill-opacity:1;stroke:none;stroke-width:0.264583;stroke-linecap:round;stroke-linejoin:round;stroke-dasharray:none;paint-order:stroke markers fill"
       d="m 17.172978,8.0658599 0.306274,1.218253 c 0.0035,0.042009 0.04722,0.0429 0.107527,0.048104 0.472838,0.040798 2.344107,0.1402213 3.334353,0.1502749 L 20.580919,8.2625363 c -0.04913,-0.04176 -3.099165,-0.2062857 -3.407941,-0.1966764 z"
       id="path39"
       sodipodi:nodetypes="ccsccc" /><path
       style="fill:#cccccc;fill-opacity:1;stroke:none;stroke-width:0.264583;stroke-linecap:round;stroke-linejoin:round;stroke-dasharray:none;paint-order:stroke markers fill"
       d="m 16.10057,7.9425865 0.362057,1.3574522 0.394891,0.012676 -0.303759,-1.3355494 z"
       id="path40" /><path
       style="fill:#cccccc;fill-opacity:1;stroke:none;stroke-width:0.264583;stroke-linecap:round;stroke-linejoin:round;stroke-dasharray:none;paint-order:stroke markers fill"
       d="m 17.375608,8.0688819 0.325004,1.272328 1.130413,0.066407 -0.31473,-1.2874318 z"
       id="path41" /><path
       d="m 21.329469,24.024971 -0.143429,0.02746 c -0.655647,0.126039 -1.532995,0.280415 -1.593938,0.280415 -0.06282,0 -0.31137,-0.05823 -0.330597,-0.07749 -0.0034,-0.0034 0.149224,-0.09498 0.338925,-0.20367 l 0.345012,-0.197726 -0.0054,-0.172405 -0.0054,-0.172358 -0.19976,-0.06787 c -0.109831,-0.0373 -0.45302,-0.153682 -0.762559,-0.25856 -0.309592,-0.10489 -0.624093,-0.212544 -0.699046,-0.239144 l -0.136143,-0.04847 -0.617354,0.194502 -0.6173,0.19446 -0.23602,-0.004 c -0.129856,-0.0021 -0.317073,-0.0093 -0.416113,-0.01582 l -0.180087,-0.01174 0.234539,-0.105881 c 0.129007,-0.05823 0.346695,-0.156261 0.483734,-0.217889 l 0.249296,-0.112009 v -0.172484 -0.172506 l -0.376223,-0.125095 c -0.206991,-0.06883 -0.624786,-0.210162 -0.928481,-0.314003 -0.303696,-0.103947 -0.564936,-0.184005 -0.580494,-0.17806 -0.01562,0.0061 -0.285961,0.06369 -0.600805,0.128166 -0.314845,0.0645 -0.648163,0.133518 -0.740861,0.153385 -0.09264,0.01979 -0.193909,0.03601 -0.225121,0.03601 -0.06476,0 -0.214321,-0.07084 -0.303944,-0.14402 l -0.06079,-0.04962 0.474471,-0.196736 0.474518,-0.196682 v -0.09508 -0.09502 l -0.131634,-0.03911 c -0.07243,-0.02148 -0.297507,-0.09176 -0.500182,-0.156112 -0.257523,-0.08174 -0.397033,-0.116927 -0.462977,-0.116927 -0.05204,0 -0.404965,0.05238 -0.784407,0.116376 -0.672889,0.113355 -0.782232,0.122176 -0.692314,0.05581 0.03642,-0.02686 0.297353,-0.138716 0.66506,-0.284965 0.124801,-0.04969 0.233248,-0.09626 0.240976,-0.103495 0.02014,-0.01912 -0.06127,-0.132825 -0.114285,-0.159478 -0.164481,-0.08264 -0.165524,-0.08278 -0.374891,-0.05204 -0.108155,0.01589 -0.40308,0.06605 -0.655351,0.11152 -0.252375,0.04551 -0.476996,0.08015 -0.499342,0.07694 -0.05494,-0.0078 -0.06369,-0.07932 -0.01582,-0.130099 0.02026,-0.02148 0.208867,-0.11667 0.419027,-0.211548 0.210262,-0.09482 0.382176,-0.176572 0.382122,-0.181574 0,-0.01932 -0.487396,-0.145212 -0.561911,-0.145212 -0.04336,0 -0.384553,0.04497 -0.758299,0.09982 -0.373753,0.05487 -0.691121,0.09982 -0.705387,0.09982 -0.01663,0 -0.02585,-0.01933 -0.02585,-0.05406 0,-0.0443 0.01239,-0.0604 0.06813,-0.08873 0.111373,-0.05675 0.725403,-0.311074 0.750866,-0.311074 0.04887,0 -0.01589,-0.03219 -0.183406,-0.09092 l -0.172358,-0.06053 -0.317867,0.02283 c -0.174835,0.01253 -0.505784,0.03838 -0.735461,0.05729 -0.542146,0.04483 -0.502613,0.04605 -0.488098,-0.01488 0.02283,-0.09522 0,-0.08527 0.533481,-0.232505 0.134851,-0.03723 0.252468,-0.07179 0.261435,-0.07689 0.0089,-0.0054 -0.06053,-0.03723 -0.154375,-0.07154 l -0.170574,-0.06234 -0.52654,0.02867 c -0.28963,0.01582 -0.577619,0.03299 -0.639996,0.0383 -0.06242,0.0054 -0.113502,0.0054 -0.113502,4.97e-4 0,-0.0054 0.0136,-0.0377 0.03036,-0.07273 0.03272,-0.06857 0.04093,-0.07224 0.40992,-0.181971 0.08735,-0.02592 0.158833,-0.05312 0.158833,-0.06032 0,-0.0072 -0.03232,-0.02329 -0.07193,-0.03561 -0.05386,-0.01676 -0.12579,-0.01818 -0.285962,-0.0054 -0.11771,0.0093 -0.359036,0.02275 -0.536302,0.02976 -0.320189,0.01266 -0.32227,0.01245 -0.32227,-0.02579 0,-0.05333 0.05198,-0.08174 0.272382,-0.148923 0.104828,-0.03198 0.198816,-0.06624 0.208774,-0.07615 0.01211,-0.01199 0.0061,-0.01468 -0.0181,-0.008 -0.03857,0.01077 -0.291112,0.0348 -0.708115,0.06758 -0.139859,0.01101 -0.268524,0.02397 -0.285961,0.02888 -0.01751,0.0048 -0.03178,0 -0.03178,-0.01174 0,-0.01138 0.116425,-0.07773 0.258709,-0.147489 0.161309,-0.07897 0.234835,-0.122719 0.195247,-0.116132 -0.03501,0.0061 -0.235177,0.0348 -0.44484,0.06423 -0.209716,0.02956 -0.408628,0.05837 -0.442122,0.06416 -0.106565,0.01845 -0.0472,-0.02504 0.202627,-0.148282 0.130847,-0.06449 0.242315,-0.122175 0.247715,-0.128214 0.0054,-0.0061 -0.01864,-0.0061 -0.0536,0 -0.555321,0.09627 -1.028358,0.169187 -1.037965,0.160017 -0.0067,-0.0061 -0.01481,-0.02706 -0.01811,-0.04591 -0.0054,-0.02841 0.04599,-0.05756 0.300976,-0.17147 0.168837,-0.07546 0.298544,-0.140055 0.288136,-0.143522 -0.0104,-0.0034 -0.09958,0.01003 -0.198117,0.03002 -0.452872,0.09165 -0.757011,0.13203 -0.764942,0.101463 -0.0027,-0.01003 0.105978,-0.08254 0.241325,-0.161161 0.135302,-0.07867 0.242658,-0.146453 0.238498,-0.15056 -0.004,-0.004 -0.18851,0.02552 -0.409672,0.06584 -0.221154,0.0404 -0.40699,0.07338 -0.412982,0.07338 -0.0342,0 0.05629,-0.06659 0.222097,-0.163491 0.103996,-0.06079 0.189007,-0.115288 0.189007,-0.121136 0,-0.01313 -0.05158,-0.0061 -0.459659,0.06503 -0.177905,0.0309 -0.336643,0.05615 -0.352693,0.05615 -0.05648,0 0.04585,-0.08264 0.204512,-0.165229 0.151056,-0.07862 0.19341,-0.115875 0.113061,-0.09948 -0.03953,0.0081 -0.184551,0.02794 -0.468978,0.0643 -0.0757,0.0097 -0.151298,0.02283 -0.167948,0.02921 -0.01663,0.0067 -0.03029,0.004 -0.03029,-0.0054 0,-0.02773 0.05473,-0.06901 0.18935,-0.142579 0.06917,-0.03784 0.117172,-0.0717 0.106676,-0.07521 -0.01603,-0.0054 -0.379845,0.04309 -0.590302,0.07843 l -0.05978,0.01003 0.09056,-0.08527 0.09056,-0.08536 -0.07239,0.01052 c -0.293441,0.04249 -0.326336,0.03467 -0.231314,-0.0544 l 0.04996,-0.04679 -0.09987,0.01113 c -0.05487,0.0061 -0.130495,0.01629 -0.167902,0.02242 -0.09126,0.01508 -0.08819,-0.01528 0.008,-0.07872 l 0.07614,-0.05016 -0.07793,-0.0054 c -0.07302,-0.0054 -0.206889,0.01522 -0.278677,0.04276 -0.04806,0.01845 -0.04087,-0.05312 0.0091,-0.09017 0.03966,-0.02935 0.03817,-0.03003 -0.04995,-0.02027 -0.04989,0.0054 -0.113195,0.01501 -0.140702,0.02108 -0.06906,0.01535 -0.06423,-0.02081 0.0091,-0.06768 l 0.05898,-0.03763 -0.169779,0.0097 c -0.161708,0.0092 -0.168399,0.0082 -0.140655,-0.02248 0.04012,-0.04437 0.02066,-0.05642 -0.09076,-0.05642 -0.07783,0 -0.09765,-0.0061 -0.106516,-0.0344 -0.01239,-0.03898 -0.06032,-0.05581 -0.160071,-0.05615 -0.04389,0 -0.07239,-0.01003 -0.07903,-0.02727 -0.0061,-0.01495 -0.0443,-0.03569 -0.08571,-0.04625 -0.04141,-0.01052 -0.113551,-0.03515 -0.160374,-0.05467 -0.04679,-0.01939 -0.105024,-0.03534 -0.129553,-0.03534 -0.02673,0 -0.05568,-0.01716 -0.07273,-0.04322 -0.02175,-0.03326 -0.0511,-0.04605 -0.12752,-0.05561 -0.05454,-0.0069 -0.130247,-0.02821 -0.168245,-0.0476 -0.03803,-0.01932 -0.09671,-0.03521 -0.130447,-0.03521 -0.03394,0 -0.0821,-0.01629 -0.107606,-0.03636 -0.02538,-0.02 -0.06349,-0.03649 -0.08457,-0.03669 -0.02108,0 -0.07387,-0.01656 -0.117319,-0.03628 -0.04343,-0.01966 -0.09686,-0.03124 -0.118811,-0.02579 -0.02686,0.0067 -0.05144,-0.0027 -0.07535,-0.02915 -0.03663,-0.04053 -0.213332,-0.12787 -0.308354,-0.152389 l -0.054,-0.01401 0.08169,-0.03905 c 0.0713,-0.03413 0.08239,-0.0472 0.08705,-0.102748 0.0048,-0.05594 -0.0061,-0.07442 -0.08918,-0.154174 -0.05373,-0.05144 -0.1147,-0.13372 -0.141052,-0.190442 -0.04303,-0.09274 -0.04605,-0.116621 -0.04249,-0.334165 0.0027,-0.142837 -0.0034,-0.243258 -0.01515,-0.257228 -0.01239,-0.01501 -0.01716,-0.15958 -0.01353,-0.414228 0.0048,-0.335499 0.0098,-0.395546 0.03575,-0.421312 0.02639,-0.02639 0.02882,-0.06463 0.01993,-0.309141 l -0.01028,-0.279073 0.352251,-0.170878 c 0.193712,-0.09398 0.601201,-0.290465 0.905441,-0.436667 0.788965,-0.378951 1.068039,-0.528371 1.075128,-0.575586 0.0061,-0.04154 0.09839,-0.09869 0.486906,-0.301763 C 3.477524,12.318241 4.11657,11.946521 5.146313,11.327194 6.930196,10.254248 7.199756,10.096647 8.986421,9.0821186 9.256028,8.9289819 9.509344,8.7813918 9.549274,8.7541455 l 0.07263,-0.049545 V 8.5131563 8.3217253 l -0.05467,0.033055 C 8.831725,8.7989819 7.953131,9.337754 7.206622,9.8021737 7.046846,9.9016067 6.720066,10.104481 6.480376,10.253061 c -0.4004,0.248259 -0.852431,0.531541 -1.761193,1.10366 -0.54333,0.342144 -1.72537,1.079685 -1.896738,1.183676 -0.151555,0.09185 -1.516454,0.772665 -1.480334,0.73833 0.01003,-0.0094 0.255092,-0.14491 0.544622,-0.30107 0.289625,-0.156105 0.546407,-0.298989 0.570678,-0.317517 0.03649,-0.02787 0.04545,-0.05352 0.05211,-0.149124 0.004,-0.06355 0.01683,-0.126531 0.02767,-0.139962 0.01077,-0.01339 0.17528,-0.128508 0.365525,-0.255786 C 3.092956,11.98799 3.481419,11.722044 3.766048,11.524271 4.250422,11.187634 6.177833,9.8553267 6.88996,9.3649538 7.065239,9.2442221 7.69245,8.8186471 8.283844,8.4191905 8.875137,8.019773 9.814316,7.3841408 10.370828,7.0066782 c 1.182881,-0.8022946 1.398535,-0.9369035 1.760298,-1.0992031 0.484778,-0.2174452 1.14934,-0.3839055 1.929639,-0.4834383 0.557752,-0.071048 0.896476,-0.090518 1.579666,-0.090565 0.683143,0 1.040247,0.019996 1.631142,0.091507 0.275358,0.033325 0.412843,0.061603 1.09227,0.2248712 1.045101,0.2509864 1.382241,0.3616614 1.895552,0.6221069 0.518117,0.262923 0.834543,0.5245602 1.022957,0.8458941 0.0408,0.069507 0.04303,0.081645 0.01905,0.105572 -0.0239,0.0239 -0.03561,0.012455 -0.10221,-0.099627 C 21.098441,6.9541372 20.974085,6.8216625 20.773141,6.6698116 20.20692,6.2418624 19.300387,5.8815878 18.209559,5.6509671 17.917208,5.5891632 17.510513,5.5283017 17.510513,5.546385 c 0,0.00915 0.01703,0.040597 0.03797,0.069903 0.03986,0.056014 0.273129,0.4925068 0.2659,0.4975091 -0.0021,0.00135 -0.159527,-0.019996 -0.349228,-0.047935 -0.189748,-0.02794 -0.350068,-0.051166 -0.356363,-0.051639 -0.0061,0 -0.01495,-0.044501 -0.01939,-0.097795 -0.0099,-0.1201885 -0.06067,-0.1955916 -0.16572,-0.2464285 -0.211648,-0.1025013 -0.484334,0.030969 -0.484334,0.2371646 v 0.069951 h -0.08545 c -0.08195,0 -0.08963,-0.00471 -0.186085,-0.1131053 -0.157649,-0.1771111 -0.406547,-0.4333488 -0.436574,-0.4493518 -0.01501,-0.00794 -0.211097,-0.0074 -0.435773,0.00135 -1.354248,0.052581 -2.575377,0.3457054 -3.340017,0.8019445 -0.533326,0.3181628 -0.798235,0.8125954 -0.778266,1.4525904 l 0.0072,0.2318584 -0.32748,0.1929198 c -0.180134,0.106076 -0.344616,0.2033195 -0.365621,0.2161523 -0.03709,0.022693 -0.03743,0.027268 -0.01401,0.1835062 0.01791,0.1193003 0.02417,0.4391455 0.0245,1.2520441 v 1.0918722 l 0.0408,0.01239 c 0.03096,0.0094 0.03427,0.01495 0.0136,0.02296 -0.01495,0.0061 -0.03238,0.01851 -0.03871,0.02814 -0.0061,0.0097 -0.0086,0.337283 -0.0054,0.728076 0.01852,2.025605 0.02538,2.613827 0.03044,2.618877 0.0034,0.0034 0.115533,-0.0061 0.249991,-0.02054 0.339962,-0.03628 0.358443,-0.03265 0.171718,0.0334 -0.08987,0.03178 -0.162057,0.06597 -0.160522,0.07601 0.0034,0.01831 0.05056,0.03124 0.214025,0.05796 l 0.08977,0.01468 -0.274071,0.09021 -0.274066,0.09022 -0.01028,0.08225 c -0.0054,0.04524 -0.01064,0.277788 -0.01113,0.51673 -0.0013,0.505433 -0.0077,0.540805 -0.06309,0.328617 -0.01535,-0.05877 -0.03313,-0.182268 -0.03966,-0.274367 l -0.01174,-0.167356 -0.08819,-0.06733 -0.08824,-0.06726 -0.0013,-0.175083 c 0,-0.09631 -0.0083,-0.436521 -0.01751,-0.75607 -0.03628,-1.260661 -0.05615,-2.906818 -0.03628,-2.995552 0.01616,-0.07188 0.01474,-0.09209 -0.0083,-0.117612 -0.05325,-0.05884 -0.03373,-0.07333 0.09899,-0.07333 h 0.126879 l 0.0048,-1.230049 c 0.0027,-0.6765998 0.0034,-1.2324718 0.0027,-1.2353466 -0.0013,-0.00343 -0.103299,0.057766 -0.226958,0.134608 C 9.809307,8.7308426 9.578438,8.8602477 9.562683,8.8457854 9.549483,8.8336744 8.852098,9.2479224 6.896746,10.429316 6.60717,10.604353 6.112878,10.89051 5.798284,11.065245 5.483736,11.239986 4.907707,11.56122 4.518253,11.779008 3.467301,12.36678 3.268539,12.476519 3.23559,12.487021 3.21916,12.492421 3.20044,12.524451 3.19412,12.558411 3.17938,12.637131 3.1272,12.680489 2.879768,12.81955 2.6709,12.936917 2.63909,12.948114 2.63909,12.90383 c 0,-0.03575 -0.004,-0.03501 -0.109587,0.01845 l -0.09017,0.04572 0.0027,0.185791 c 0.0013,0.102149 0.0075,0.283826 0.0136,0.403671 l 0.01113,0.217889 0.07203,0.0091 c 0.06503,0.0082 0.07318,0.01515 0.08517,0.07263 0.01737,0.08388 0.04249,1.577639 0.02746,1.637537 -0.0072,0.02894 -0.03299,0.05527 -0.06852,0.07 -0.05258,0.02175 -0.05938,0.0202 -0.09056,-0.02047 -0.03367,-0.04376 -0.0338,-0.04316 -0.03421,0.133316 0,0.165229 0.02848,0.408231 0.07391,0.621662 0.02727,0.128268 0.03205,0.139908 0.05265,0.127124 0.01223,-0.0076 0.0115,-0.0241 -0.0021,-0.04922 -0.01932,-0.03609 -0.01697,-0.0373 0.04989,-0.02652 0.03857,0.0061 0.09468,0.01662 0.124651,0.0231 0.04478,0.0097 0.05043,0.0075 0.03178,-0.01232 -0.02639,-0.028 -0.03124,-0.302059 -0.0061,-0.341941 0.01791,-0.02841 0.152443,-0.02485 0.972767,0.02538 0.239642,0.01468 0.652283,0.03918 0.916888,0.05446 1.00948,0.0583 2.986529,0.174735 3.395257,0.200002 0.234689,0.01455 0.651388,0.03905 0.926005,0.0544 0.274665,0.01549 0.54834,0.03669 0.608239,0.04733 0.308252,0.05446 0.457376,0.236714 0.785443,0.959741 0.09305,0.205056 0.189061,0.413729 0.213331,0.463617 l 0.04416,0.09082 -0.01113,-0.2114 -0.01101,-0.211399 0.07971,0.0076 c 0.04383,0.004 0.201146,0.01926 0.34957,0.03346 0.148383,0.01414 0.271696,0.02821 0.274025,0.03124 0.0027,0.0034 0.05796,0.152591 0.123756,0.332328 0.09929,0.271345 0.125196,0.325939 0.152638,0.321731 0.140602,-0.02162 0.169241,-0.02881 0.169241,-0.04249 0,-0.0086 -0.03736,-0.07391 -0.08309,-0.145206 -0.160764,-0.250784 -0.207387,-0.354976 -0.207387,-0.463025 0,-0.08957 -0.0067,-0.105917 -0.06812,-0.170978 l -0.06807,-0.07198 -0.290519,-0.03609 c -0.159774,-0.01985 -0.320041,-0.0408 -0.356114,-0.04652 l -0.06557,-0.0104 -0.0034,-0.398273 c -0.0021,-0.219027 0.0034,-0.39842 0.01113,-0.398622 0.01864,0 0.426563,-0.061 0.679327,-0.100815 l 0.192575,-0.03029 0.160126,0.07937 c 0.08808,0.04356 0.148524,0.0809 0.134258,0.08278 -0.0142,0.0021 -0.0974,0.0088 -0.184846,0.01528 l -0.158981,0.01174 0.0115,0.366071 c 0.0061,0.201294 0.01662,0.371767 0.02296,0.378856 0.0061,0.007 0.07952,0.01845 0.16275,0.02538 0.140554,0.01174 0.152692,0.01603 0.170675,0.05978 0.117123,0.285066 0.172007,0.368697 0.274462,0.417838 0.100522,0.04827 0.32639,0.07417 0.64728,0.07417 0.40417,0 0.560276,-0.05433 0.762957,-0.265354 0.119643,-0.124651 0.216152,-0.307013 0.251525,-0.475413 0.04847,-0.231064 0.01125,-0.530747 -0.09601,-0.773015 -0.04397,-0.09937 -0.06288,-0.243796 -0.03548,-0.271244 0.0177,-0.0177 0.09938,0.169537 0.599964,1.376493 l 0.143078,0.344966 0.335304,-0.0054 c 0.47447,-0.0076 0.625676,-0.02673 0.716389,-0.09017 0.109342,-0.07654 0.19926,-0.267434 0.258513,-0.548931 0.0437,-0.207489 0.04793,-0.264365 0.04901,-0.662684 4.92e-4,-0.239689 -0.0054,-0.491564 -0.01401,-0.559737 l -0.01522,-0.123952 -0.547639,0.01126 c -1.551928,0.03192 -2.243742,0.04747 -2.862577,0.06436 -0.758696,0.02067 -1.634758,0.05016 -1.870139,0.06295 l -0.154328,0.0084 0.133519,-0.03461 c 0.07338,-0.01905 0.298099,-0.05561 0.499292,-0.08135 0.201194,-0.02571 0.48834,-0.06315 0.638158,-0.08314 0.60477,-0.0808 0.567217,-0.0795 1.645415,-0.05554 0.562901,0.01253 1.358558,0.02006 1.76798,0.0167 l 0.744428,-0.0061 0.0054,-0.381279 c 0.0034,-0.209717 4.98e-4,-0.407389 -0.0054,-0.439247 l -0.0104,-0.05796 -0.348876,0.0078 c -0.191881,0.004 -0.591985,0.01162 -0.889049,0.01616 l -0.54016,0.0083 v -0.05103 -0.0509 l 0.903262,-0.01622 c 0.532531,-0.0095 0.908115,-0.0095 0.915104,0 0.007,0.0095 0.54061,0.0076 1.298168,-0.0048 0.707515,-0.0115 1.858342,-0.02956 2.557388,-0.04013 0.698998,-0.01052 1.328093,-0.0276 1.398044,-0.0377 0.0699,-0.01028 0.492702,-0.02289 0.939577,-0.02841 l 0.812547,-0.0098 v 0.04491 0.04497 l -0.757503,0.0132 c -0.416652,0.0072 -0.763852,0.01716 -0.771675,0.02195 -0.0078,0.0048 -0.01414,0.19708 -0.01414,0.427209 v 0.418389 l 0.48562,-0.01113 c 0.267184,-0.0061 0.653217,-0.01589 0.857931,-0.02175 l 0.372211,-0.01052 -0.004,0.314891 c -0.0048,0.332234 -0.02996,0.52728 -0.105427,0.812549 -0.09146,0.345711 -0.263219,0.707467 -0.436567,0.919762 -0.172513,0.211096 -0.448908,0.382862 -0.742746,0.461336 -0.238404,0.06369 -0.244348,0.06743 -0.301863,0.190245 -0.02841,0.06086 -0.08892,0.237165 -0.134313,0.391689 -0.124498,0.423835 -0.07749,0.374245 -0.368496,0.38841 -0.328617,0.01603 -1.477413,0.04631 -1.765945,0.04666 h -0.228447 l -0.0581,0.08967 c -0.03198,0.04929 -0.08566,0.106663 -0.119447,0.12752 -0.05769,0.03575 -0.06597,0.03628 -0.140156,0.01076 -0.04329,-0.01495 -0.08124,-0.01999 -0.08428,-0.01125 -0.01966,0.05723 -0.12995,0.194406 -0.198217,0.246475 -0.0762,0.05823 -0.07848,0.06242 -0.03851,0.0713 0.02337,0.0054 0.630725,0.11979 1.349739,0.254595 1.52081,0.285221 2.076433,0.389803 3.195552,0.601701 1.975413,0.374041 2.344164,0.444544 2.375773,0.4544 0.03178,0.0098 0.03326,0.03534 0.02727,0.460999 -0.0034,0.247856 -0.01272,0.45698 -0.02054,0.464709 -0.01837,0.01837 -0.379792,-0.04807 -0.808091,-0.148579 -0.186873,-0.04389 -0.357151,-0.07991 -0.378452,-0.08007 -0.02127,0 -0.339963,0.05629 -0.708115,0.12554 -0.368199,0.06921 -0.901773,0.168642 -1.185802,0.22096 l -0.516435,0.09518 -0.132327,-0.07086 c -0.253954,-0.136043 -0.298348,-0.10106 0.437066,-0.344466 l 0.647865,-0.214422 -0.0054,-0.12688 -0.0054,-0.126827 -0.299582,-0.06896 c -0.164784,-0.0379 -0.324653,-0.06931 -0.355272,-0.06977 -0.03063,0 -0.230768,0.03211 -0.444847,0.07234 -0.676054,0.127129 -1.232022,0.234538 -1.557618,0.300874 l -0.315193,0.0643 -0.17122,-0.103544 c -0.09408,-0.05696 -0.168791,-0.10577 -0.165916,-0.108449 0.0072,-0.0069 1.246342,-0.41458 1.412263,-0.464716 0.07497,-0.02262 0.142486,-0.04618 0.150162,-0.05244 0.0076,-0.0061 -0.123064,-0.04524 -0.29052,-0.0867 -0.16745,-0.04154 -0.386134,-0.09729 -0.48601,-0.124005 l -0.181575,-0.04847 -0.835189,0.240032 c -0.459356,0.132078 -0.898704,0.260642 -0.976389,0.285761 l -0.141194,0.04564 -0.181076,-0.103445 c -0.09958,-0.05689 -0.181083,-0.109245 -0.181083,-0.116377 0,-0.0071 0.26198,-0.141894 0.582128,-0.299534 0.320197,-0.157648 0.57935,-0.289382 0.575936,-0.29285 -0.0034,-0.0034 -0.136688,-0.02302 -0.296167,-0.04362 -0.159526,-0.02054 -0.363547,-0.04847 -0.453418,-0.06207 l -0.163391,-0.02464 -0.508408,0.13446 c -0.279566,0.07401 -0.612836,0.162745 -0.740659,0.197275 -0.127722,0.03454 -0.243305,0.06282 -0.256931,0.06282 -0.01353,0 -0.06564,-0.01905 -0.115777,-0.04228 l -0.09121,-0.04222 0.157499,-0.0917 c 0.08655,-0.05049 0.326633,-0.186928 0.533474,-0.303251 0.206795,-0.116376 0.380883,-0.219478 0.386882,-0.229187 0.0061,-0.0098 -0.0048,-0.0177 -0.0235,-0.0177 -0.01885,0 -0.19708,-0.03609 -0.395951,-0.08017 -0.198911,-0.0441 -0.398421,-0.08556 -0.443353,-0.09204 -0.08061,-0.01174 -0.379845,0.03393 -0.775843,0.118358 -0.198762,0.04235 -0.186429,0.04154 -0.186429,0.01239 0,-0.01387 0.106774,-0.05931 0.263375,-0.111912 0.294377,-0.09903 0.275949,-0.0812 0.307311,-0.298194 l 0.0115,-0.07927 -0.13218,0.01126 c -0.07273,0.0061 -0.532539,0.03615 -1.02192,0.06659 -1.225289,0.0762 -1.17421,0.07075 -1.190704,0.126235 -0.0075,0.02491 -0.02773,0.09294 -0.04524,0.151009 -0.06363,0.212187 -0.175825,0.325939 -0.389998,0.395203 -0.06443,0.02081 -0.129358,0.04201 -0.144318,0.04706 -0.01495,0.0054 0.679529,0.221007 1.54335,0.479869 0.863776,0.258857 2.318104,0.694738 3.231821,0.968607 0.913764,0.273925 2.550009,0.764096 3.636131,1.089293 1.086176,0.325152 2.323947,0.698258 2.750711,0.829051 M 12.472919,19.826151 c -0.03453,-0.05245 -0.08467,-0.146403 -0.11152,-0.208827 -0.03986,-0.09289 -0.05642,-0.113502 -0.09111,-0.113502 -0.05992,0 -0.161512,-0.09562 -0.197827,-0.18628 -0.02316,-0.05777 -0.08189,-0.307708 -0.08189,-0.348379 0,-0.0027 -0.04282,-0.0099 -0.09532,-0.01595 -0.07699,-0.0089 -0.105526,-0.02242 -0.148431,-0.06995 l -0.05312,-0.0589 -0.464366,-0.06713 c -0.255342,-0.0369 -0.485963,-0.0755 -0.512516,-0.08582 -0.03138,-0.01211 -0.05554,-0.0412 -0.06946,-0.08332 -0.02504,-0.07585 -0.0618,-0.08863 -0.04249,-0.01474 0.02417,0.09259 0.01549,0.181622 -0.02189,0.223188 -0.03265,0.03628 -0.04887,0.03911 -0.181123,0.03171 l -0.14526,-0.0082 -0.08169,0.164879 c -0.04491,0.09066 -0.08417,0.170277 -0.08719,0.176916 -0.0034,0.0067 0.04188,0.02571 0.09982,0.04241 0.164381,0.04739 1.859091,0.566718 2.10259,0.644304 0.11979,0.03817 0.224085,0.07026 0.231712,0.07114 0.0076,0.0013 -0.01447,-0.04114 -0.04895,-0.09354 v 0 m 5.161405,-0.426664 c -0.04437,-0.04747 -0.114835,-0.136836 -0.156698,-0.198614 -0.04195,-0.0618 -0.08428,-0.117367 -0.09414,-0.123514 -0.04982,-0.03071 -0.781141,0.132926 -0.781141,0.174788 0,0.0245 0.203569,0.0706 0.862443,0.195195 0.266834,0.05043 0.262526,0.05171 0.169529,-0.04787 v 0 M 9.695722,18.975544 c -0.03569,-0.06484 -0.08754,-0.210059 -0.166359,-0.465799 -0.0048,-0.01555 -0.05076,-0.02269 -0.147044,-0.02269 -0.103642,0 -0.159923,-0.0095 -0.216206,-0.03682 -0.120976,-0.05857 -0.270652,-0.230028 -0.355966,-0.407839 -0.0412,-0.08581 -0.08798,-0.163041 -0.103996,-0.171564 -0.03507,-0.01864 -1.12303,-0.444646 -1.418162,-0.555226 -0.201832,-0.07565 -0.826612,-0.214119 -0.976928,-0.21655 -0.05723,-0.0013 -0.06268,0.0054 -0.118015,0.129653 -0.03184,0.07179 -0.07526,0.153535 -0.09631,0.181575 l -0.03838,0.05096 -0.352001,-0.0034 c -0.336044,-0.0034 -0.364879,-0.0061 -0.633498,-0.06906 -0.208377,-0.04902 -0.300228,-0.07947 -0.354034,-0.117416 -0.07144,-0.05043 -0.07773,-0.05144 -0.376324,-0.05857 -0.324505,-0.0077 -0.322721,-0.0083 -0.322721,0.08348 0,0.03723 0.02189,0.0476 0.222393,0.10533 0.12237,0.03528 0.630974,0.186921 1.130314,0.337135 0.499246,0.150167 1.140621,0.34269 1.425244,0.427949 0.931356,0.278731 2.60362,0.788028 2.805211,0.854262 0.06985,0.02296 0.129202,0.03999 0.131882,0.03784 0.0027,-0.0021 -0.01495,-0.03978 -0.03911,-0.08374 v 1.01e-4 m 10.374484,-0.61215 c 0,-0.0616 -0.0369,-0.09786 -0.281452,-0.276845 -0.234384,-0.171564 -0.452226,-0.344124 -0.459955,-0.364335 -0.0034,-0.0088 0.07506,-0.01589 0.174142,-0.01589 0.09909,0 0.316285,-0.0054 0.482697,-0.01187 l 0.302457,-0.01187 v -0.106112 -0.106076 h -0.09869 -0.09878 l 0.05366,-0.118359 c 0.08496,-0.187216 0.112315,-0.334461 0.102944,-0.553435 -0.007,-0.16498 -0.01703,-0.213433 -0.07442,-0.360429 -0.03649,-0.09333 -0.06632,-0.172062 -0.06632,-0.174931 0,-0.0034 0.04497,-0.01076 0.09982,-0.01757 l 0.09993,-0.01245 v -0.08819 -0.08818 l -0.467583,0.008 c -0.257126,0.004 -0.800463,0.01293 -1.207407,0.01905 l -0.739871,0.01101 v 0.0866 0.0867 l 0.157203,-0.0098 0.157096,-0.0098 -0.01232,0.04356 c -0.0069,0.02397 -0.02531,0.08853 -0.0412,0.143474 -0.03953,0.136691 -0.05346,0.517822 -0.02485,0.679677 0.01939,0.109391 0.06355,0.251531 0.117563,0.377961 0.01253,0.02935 -0.0054,0.03177 -0.233496,0.03177 h -0.247067 v 0.109196 0.109196 l 0.642519,-0.01226 0.64252,-0.01226 0.24261,0.172358 c 0.133418,0.09482 0.336543,0.236417 0.451379,0.314695 0.114884,0.07828 0.228298,0.15725 0.252124,0.175528 0.05938,0.04545 0.07471,0.04181 0.07471,-0.01791 v 0 m -1.470128,-0.730607 c -0.151797,-0.0643 -0.244046,-0.2108 -0.265495,-0.42121 -0.01441,-0.141941 -0.02585,-0.135895 0.181917,-0.09612 0.186679,0.03575 0.648464,0.10429 0.65451,0.09726 0.0067,-0.0076 -0.02646,-0.274664 -0.03501,-0.283187 -0.0034,-0.0034 -0.05096,0.03918 -0.10517,0.09518 -0.06079,0.06274 -0.108645,0.09789 -0.124753,0.0917 -0.03797,-0.01455 -0.21581,-0.30385 -0.21581,-0.351057 0,-0.02202 0.02727,-0.06971 0.06059,-0.106076 l 0.06046,-0.06597 0.0859,0.04282 c 0.04726,0.02363 0.118811,0.07104 0.159034,0.105477 0.07807,0.06686 0.105232,0.05918 0.105771,-0.02989 0,-0.02283 0.0206,-0.08155 0.04537,-0.130543 0.141293,-0.278778 0.54269,-0.3199 0.755624,-0.07739 0.100815,0.114847 0.133216,0.210706 0.133566,0.39461 0,0.140951 -0.0069,0.178403 -0.05043,0.272335 -0.100228,0.215903 -0.27125,0.335405 -0.480468,0.335748 -0.113257,0 -0.16537,-0.01899 -0.335951,-0.123211 l -0.05056,-0.03098 -0.06215,0.07447 c -0.03421,0.04093 -0.106418,0.104939 -0.160568,0.142237 -0.07976,0.05487 -0.11875,0.06922 -0.205052,0.07531 -0.05864,0.004 -0.126786,-0.0013 -0.151406,-0.0115 v 0 M 5.533049,17.294736 c 0.0067,-0.07634 0.01174,-0.190636 0.01174,-0.253807 0,-0.104339 -0.0034,-0.115777 -0.04087,-0.124153 -0.06073,-0.01374 -0.741649,-0.118603 -0.769939,-0.118603 -0.01864,0 -0.02444,0.03959 -0.02444,0.168291 0,0.275903 0.03016,0.301716 0.490223,0.420423 0.09492,0.02444 0.206048,0.04504 0.247023,0.04564 l 0.0745,0.0013 0.01174,-0.138822 m 15.890118,0.110834 c 0.359634,-0.09368 0.806455,-0.399067 1.047928,-0.716335 0.17736,-0.23295 0.340306,-0.651736 0.383212,-0.984959 l 0.01113,-0.0862 h -0.294733 c -0.162051,0 -0.521437,0.0054 -0.798625,0.01199 l -0.503946,0.01199 -0.01589,0.06517 c -0.0088,0.03582 -0.0373,0.180585 -0.06342,0.321732 -0.05473,0.295521 -0.111178,0.499588 -0.212194,0.767615 -0.03932,0.104327 -0.07144,0.210706 -0.07139,0.236417 0,0.07318 0.06255,0.157742 0.168743,0.228244 0.05373,0.03561 0.115533,0.08897 0.137383,0.118603 0.04585,0.06194 0.06423,0.06416 0.211743,0.02579 v 0 M 3.765394,17.224792 c 0,-0.03096 -0.01326,-0.05076 -0.04086,-0.06092 -0.05944,-0.02195 -0.30414,-0.03905 -0.30414,-0.02127 0,0.0083 0.05521,0.02882 0.122565,0.04551 0.06743,0.0167 0.143031,0.04174 0.168002,0.05575 0.02491,0.01401 0.04733,0.02579 0.04989,0.02612 0.0027,0 0.0048,-0.02 0.0048,-0.04518 H 3.765549 M 3.166333,17.056209 c 0,-0.05413 -0.05602,-0.08015 -0.227698,-0.105672 -0.09943,-0.01474 -0.211844,-0.0338 -0.249795,-0.04228 -0.04847,-0.01089 -0.06705,-0.0095 -0.06234,0.0048 0.0034,0.01101 0.100069,0.04551 0.214268,0.07654 0.11415,0.03104 0.219821,0.0614 0.234788,0.06753 0.04032,0.01643 0.09076,0.01609 0.09076,-4.98e-4 v -2.48e-4 m 0.650591,-0.07242 c -0.0034,-0.008 -0.04114,-0.100767 -0.08417,-0.20625 l -0.07813,-0.191828 -0.18653,-0.03063 c -0.102504,-0.01683 -0.205454,-0.03555 -0.228587,-0.04168 -0.03878,-0.01003 -0.04114,-0.0069 -0.02908,0.04101 0.0071,0.02861 0.04524,0.119447 0.08452,0.201885 0.07976,0.16706 0.07367,0.163195 0.334416,0.213333 0.155715,0.02989 0.195443,0.03292 0.187566,0.01414 v 0 M 2.411933,16.855572 c -0.01414,-0.01286 -0.181473,-0.075 -0.202034,-0.075 -0.0034,0 -0.0061,0.008 -0.0061,0.01757 0,0.0097 0.03878,0.02948 0.08624,0.04416 0.100767,0.03104 0.146499,0.03595 0.121625,0.01326 v 0 m -0.375685,-0.0977 c -0.0067,-0.02033 -0.05709,-0.03569 -0.267973,-0.0815 l -0.06349,-0.0138 -0.0054,-0.158839 c -0.0034,-0.08738 -0.0099,-0.158879 -0.01568,-0.158879 -0.0084,0 -0.496319,-0.126982 -0.609969,-0.158786 -0.02754,-0.0077 -0.03177,0.0048 -0.03177,0.09191 0,0.100509 0,0.100913 -0.05898,0.106565 -0.04457,0.004 -0.0604,0.01528 -0.06463,0.04531 -0.0067,0.04672 -0.02283,0.04114 0.641038,0.222696 0.52104,0.142532 0.486455,0.134851 0.476794,0.105378 v 0 M 0.805661,16.411134 c 0,-0.03421 -0.06632,-0.09051 -0.08962,-0.07614 -0.02948,0.01824 -0.02302,0.06032 0.01245,0.081 0.04457,0.02592 0.07719,0.02397 0.07719,-0.0048 v -2.03e-4 m 1.641698,-0.0762 c -0.03346,-0.08006 -0.07526,-0.372314 -0.09151,-0.640137 -0.0069,-0.111826 -0.01797,-0.203375 -0.02485,-0.203375 -0.0069,0 -0.02181,0.02039 -0.03319,0.04537 -0.02485,0.05446 -0.09264,0.06086 -0.136097,0.01286 -0.02606,-0.02888 -0.03003,-0.126038 -0.03461,-0.848862 l -0.0054,-0.816265 0.04996,-0.08491 c 0.04793,-0.08165 0.04996,-0.09478 0.04996,-0.336839 0,-0.246529 0.01028,-0.295374 0.06261,-0.295374 0.01253,0 0.01905,0.09635 0.01905,0.279466 0,0.250487 0.0034,0.283537 0.03501,0.318217 0.01918,0.02127 0.03966,0.03232 0.04537,0.02458 0.0054,-0.0078 0.0061,-0.187668 0.0013,-0.399908 l -0.0091,-0.385838 -0.07258,0.06517 c -0.06591,0.05917 -1.199475,0.639443 -1.730176,0.885723 l -0.186974,0.0867 0.01266,0.675016 c 0.0115,0.615119 0.01003,0.6772 -0.01737,0.699888 -0.02323,0.01925 -0.03003,0.05696 -0.03003,0.165572 v 0.140654 l 0.06813,0.01125 c 0.12311,0.02033 0.204216,0.01414 0.204216,-0.01562 0,-0.0334 0.0115,-0.03353 0.481156,-0.0072 0.199759,0.01125 0.369889,0.02673 0.378156,0.03427 0.0083,0.0077 -0.06772,0.02404 -0.168837,0.03642 -0.101073,0.01239 -0.181131,0.02525 -0.17771,0.02861 0.0092,0.0093 0.43454,0.09229 0.64019,0.124995 0.315787,0.05023 0.321731,0.05467 0.387224,0.293986 l 0.034,0.123952 0.107115,0.0206 c 0.177658,0.03413 0.1731,0.03534 0.141989,-0.03911 h -1.48e-4 m -0.234587,-0.06288 c -0.01293,-0.02087 -0.04887,-0.347395 -0.03932,-0.357003 0.01447,-0.01447 0.119447,0.01804 0.127722,0.03953 0.0054,0.01286 0.01447,0.07992 0.02127,0.149023 0.01028,0.104632 0.0072,0.130691 -0.01818,0.156207 -0.03427,0.03421 -0.07456,0.03972 -0.09151,0.01226 v 0 M 0.48677,14.542501 c 0.0072,-0.222246 0.01872,-0.410014 0.02558,-0.417298 0.0069,-0.0073 0.04013,-0.01885 0.07391,-0.02558 l 0.0614,-0.01226 -0.01259,0.40561 c -0.0076,0.248354 -0.0202,0.414868 -0.03238,0.429533 -0.01089,0.0132 -0.04443,0.0239 -0.07442,0.0239 H 0.47373 L 0.4868,14.542485 m 0.203966,0.337984 c -0.01187,-0.01187 -4.98e-4,-0.496123 0.0167,-0.727087 0.0094,-0.125937 0.01174,-0.131041 0.06584,-0.149871 0.03077,-0.01076 0.05998,-0.01549 0.06503,-0.01052 0.0104,0.0104 0.0061,0.730561 -0.0048,0.771831 -0.004,0.01501 -0.01211,0.04975 -0.01811,0.07718 -0.0089,0.04006 -0.02135,0.04989 -0.06221,0.04989 -0.02814,0 -0.05635,-0.0054 -0.06268,-0.0115 h 1.02e-4 m 0.201536,-0.04618 c -0.0048,-0.0132 -6.73e-4,-0.216058 0.008,-0.450691 0.01528,-0.395748 0.01912,-0.428993 0.05346,-0.458467 0.04955,-0.04255 0.08239,-0.04007 0.0974,0.0075 0.02006,0.06295 -0.01101,0.845101 -0.03461,0.875968 -0.02956,0.03851 -0.113453,0.05594 -0.124255,0.02579 v 0 m 0.214469,-0.04868 c -0.01125,-0.01918 0.02181,-0.916833 0.03515,-0.951465 0.0136,-0.03534 0.08392,-0.05945 0.126235,-0.04322 0.03163,0.01211 0.03219,0.04249 0.01076,0.588466 -0.008,0.202385 -0.01905,0.372662 -0.02471,0.37831 -0.01716,0.01724 -0.140009,0.04053 -0.147395,0.02794 v 0 m 0.237165,-0.09794 c -0.01764,-0.07298 0.01643,-0.927983 0.03865,-0.969254 0.02135,-0.03965 0.10051,-0.07074 0.13158,-0.0515 0.02006,0.01239 0.02269,0.380882 0.0054,0.743978 -0.01003,0.208921 -0.01757,0.256533 -0.04531,0.284277 -0.04766,0.04766 -0.117771,0.04363 -0.130145,-0.0075 m 0.247169,-0.04443 c -0.01374,-0.03588 0.0078,-0.96405 0.02363,-1.018448 0.01643,-0.05635 0.109538,-0.104742 0.144956,-0.07536 0.04214,0.03494 0.02929,1.036532 -0.0138,1.079686 -0.0067,0.0067 -0.04161,0.01851 -0.07798,0.02673 -0.0521,0.01174 -0.06847,0.0091 -0.07679,-0.01259 v 0 M 1.858482,14.1789 c 0,-0.231907 0.0054,-0.489828 0.01187,-0.573061 0.01162,-0.149669 0.01245,-0.151796 0.07268,-0.180531 0.108791,-0.05191 0.105721,-0.07021 0.100473,0.606797 -0.004,0.52728 -0.0061,0.536302 -0.126181,0.557852 l -0.05904,0.01052 10e-5,-0.421654 m 0.38118,1.257786 c 0,-0.03993 -0.0082,-0.07258 -0.01811,-0.07258 -0.01003,0 -0.01818,0.03265 -0.01818,0.07258 0,0.03999 0.0082,0.07263 0.01818,0.07263 0.0099,0 0.01811,-0.03265 0.01811,-0.07263 m 0.347839,-0.09076 c 0.01101,-0.274369 -0.008,-1.497975 -0.02175,-1.398044 -0.0076,0.05487 -0.01468,0.17132 -0.01562,0.258715 -0.0013,0.12286 -0.0076,0.158879 -0.02713,0.158879 -0.0614,0 -0.06261,0.123413 -0.0021,0.188953 0.05473,0.05904 0.0581,0.111471 0.0091,0.142089 -0.02869,0.01791 -0.03628,0.04228 -0.03628,0.116181 0,0.06645 0.0078,0.09661 0.02727,0.104033 0.01973,0.0076 0.02679,0.03682 0.02579,0.106321 -0.0013,0.05279 -0.0054,0.08571 -0.01052,0.07322 -0.02,-0.04955 -0.04241,-0.01831 -0.04241,0.05905 0,0.06052 0.0071,0.08169 0.02727,0.08169 0.02006,0 0.02719,0.02108 0.02719,0.08017 0,0.04416 -0.0088,0.08318 -0.0196,0.0868 -0.0136,0.0048 -0.01266,0.02181 0.0034,0.05642 0.03319,0.07283 0.04941,0.03953 0.05561,-0.114443 h 1.96e-4 m -2.259834,-0.03144 c -0.0048,-0.01764 -0.0087,-0.0076 -0.0091,0.02242 0,0.02996 0.0034,0.04437 0.0084,0.03211 0.0054,-0.01226 0.0054,-0.03676 4.92e-4,-0.05454 h 1.55e-4 m 16.348531,-0.05844 c 0.53754,-0.0245 1.615489,-0.05131 3.029583,-0.07505 l 1.152464,-0.01932 0.08595,-0.08036 c 0.04726,-0.04416 0.09443,-0.08036 0.104828,-0.08036 0.0104,0 0.01891,-0.0078 0.01891,-0.01737 0,-0.0095 -0.06355,-0.03743 -0.1412,-0.062 -0.462924,-0.146249 -0.97787,-0.158039 -1.605727,-0.03676 -0.228096,0.04397 -0.714799,0.173698 -0.777074,0.207037 -0.02262,0.01211 -0.06931,0.0048 -0.158637,-0.02579 -0.192375,-0.06551 -0.612251,-0.169335 -0.785202,-0.194306 -0.456932,-0.06591 -1.19537,0.0173 -1.643234,0.185191 l -0.10889,0.0408 0.106162,0.03534 c 0.09047,0.03016 0.110235,0.04491 0.132879,0.09918 0.02579,0.06188 0.02895,0.06342 0.104731,0.05298 0.04295,-0.0061 0.26099,-0.01899 0.484427,-0.02929 v 0 M 2.260888,14.928087 c 0.01313,-0.373455 -0.0013,-1.071067 -0.02175,-1.071067 -0.02773,0 -0.034,0.09993 -0.04645,0.750871 -0.01259,0.652127 -0.01199,0.668972 0.02175,0.662483 0.03205,-0.0061 0.03555,-0.03151 0.04645,-0.342287 m -1.914033,-0.004 c -0.004,-0.04275 -0.007,-0.01226 -0.0071,0.06763 0,0.07986 0.0034,0.114786 0.007,0.07758 0.004,-0.03716 0.004,-0.102504 0,-0.145206 h 1.49e-4 m 10.057411,-0.679823 c -0.0067,-0.376084 -0.01199,-1.270774 -0.01199,-1.988099 0,-1.03138 -0.0048,-1.304308 -0.02269,-1.304308 -0.01804,0 -0.02269,0.383408 -0.02269,1.856513 0,1.712194 -0.0027,1.865425 -0.03178,1.971447 -0.01751,0.06315 -0.03184,0.117808 -0.03184,0.121331 0,0.0034 0.02248,0.0098 0.04989,0.01401 0.02746,0.004 0.05742,0.0088 0.06651,0.01028 0.0099,0.0013 0.01174,-0.271843 0.0048,-0.681163 h -1.02e-4 M 2.671161,12.48878 c 0.137975,-0.104241 0.729711,-0.498498 1.457296,-0.970984 0.08488,-0.05508 0.248259,-0.161364 0.363096,-0.236121 0.114798,-0.07471 0.319105,-0.206693 0.453909,-0.293292 0.134811,-0.08655 0.498405,-0.320837 0.807944,-0.520595 C 6.062998,10.268028 6.63492,9.902112 7.024421,9.6545932 7.413881,9.4070805 7.773361,9.1780415 7.823295,9.1455912 8.111789,8.9579244 9.388204,8.1714366 10.12005,7.7303056 l 0.499341,-0.301022 0.0104,-0.1042325 c 0.0061,-0.057429 0.0091,-0.1065212 0.0072,-0.1091942 -0.0054,-0.00767 -1.593986,0.9712323 -2.34178,1.4428821 -1.577291,0.9947152 -4.414305,2.838993 -5.283184,3.434494 -0.374588,0.25673 -0.463369,0.336643 -0.463369,0.417002 0,0.03158 0.004,0.05756 0.0089,0.05756 0.0054,0 0.05594,-0.03555 0.113501,-0.07902 v 0 m 11.778917,12.117787 c -0.117074,-0.01089 -0.153237,-0.02598 -0.444841,-0.185681 -0.174593,-0.09562 -0.509453,-0.278132 -0.744086,-0.405557 -0.421606,-0.228938 -1.265266,-0.687405 -1.670426,-0.907671 -0.114798,-0.06241 -0.361116,-0.195942 -0.547302,-0.296659 -0.186179,-0.10073 -0.635531,-0.369835 -0.99858,-0.598133 -0.363095,-0.22819 -0.741803,-0.4659 -0.841679,-0.528223 -0.09982,-0.06234 -0.29186,-0.182962 -0.426664,-0.268073 -0.134851,-0.08512 -0.35542,-0.221061 -0.490225,-0.302113 -0.454105,-0.273028 -0.62845,-0.394408 -0.566665,-0.394408 0.0104,0 0.2054,0.101073 0.433497,0.224529 0.228042,0.123459 0.806799,0.435179 1.286076,0.69275 0.84302,0.452919 1.099554,0.595459 1.561489,0.867647 0.11979,0.0706 0.291407,0.170324 0.381279,0.2217 0.411253,0.234983 2.507601,1.451896 2.836961,1.646896 0.202236,0.119741 0.367707,0.224971 0.367707,0.23394 0,0.0089 -0.0021,0.01501 -0.0048,0.0136 -0.0027,-0.0013 -0.06188,-0.008 -0.131977,-0.01455 h 4.7e-5 M 5.788565,19.643309 C 4.419901,18.858013 4.054375,18.64557 3.774258,18.472667 3.604526,18.367839 3.351265,18.212814 3.211457,18.128147 2.952298,17.971199 2.877736,17.915804 2.898102,17.895399 c 0.0061,-0.0061 0.210106,0.08605 0.452919,0.205252 0.37776,0.185439 0.610366,0.320742 1.612514,0.938042 0.644102,0.396784 1.19918,0.743837 1.233509,0.771278 0.06282,0.05016 0.09071,0.09308 0.06053,0.09308 -0.0089,0 -0.220024,-0.116866 -0.469024,-0.259753 v 0 m 15.698094,-1.41791 c 0.01461,-0.01393 0.128712,-0.08012 0.253505,-0.146943 0.312669,-0.167552 0.441131,-0.256481 0.595209,-0.41229 0.201981,-0.20427 0.300376,-0.366368 0.41596,-0.685426 0.121771,-0.336247 0.252271,-0.962811 0.295225,-1.417117 0.02464,-0.26099 0.06032,-1.011317 0.05177,-1.089347 l -0.007,-0.06355 -0.0115,0.06355 c -0.01101,0.06067 -0.05467,0.556613 -0.07877,0.894199 -0.01162,0.162004 -0.04416,0.221552 -0.04477,0.08169 0,-0.04241 -0.01232,-0.305923 -0.027,-0.585543 -0.01468,-0.279573 -0.02679,-0.510436 -0.02693,-0.512913 0,-0.0027 -0.03501,-0.0048 -0.07744,-0.0048 h -0.07713 l 0.08124,-0.04645 c 0.113013,-0.06457 0.174741,-0.07421 0.218981,-0.03427 0.01979,0.01791 0.03999,0.02842 0.04497,0.02343 0.02612,-0.02619 -0.07154,-0.435187 -0.143576,-0.600455 -0.04397,-0.100914 -0.01892,-0.08249 0.03649,0.02679 0.0929,0.183352 0.148336,0.382068 0.191337,0.685816 0.03615,0.25549 0.0305,1.113618 -0.0097,1.461605 -0.08155,0.705738 -0.242565,1.236788 -0.488986,1.611976 -0.228891,0.348533 -0.51906,0.554283 -1.007602,0.714301 -0.2114,0.06927 -0.221357,0.0712 -0.184396,0.03595 v -3.03e-4 M 2.599725,16.277435 c -0.03144,-0.0083 -0.04154,-0.05392 -0.05655,-0.25549 l -0.0071,-0.09527 h 0.07897 0.07908 v 0.181575 c 0,0.193612 0,0.19401 -0.09438,0.169187 v 0 m 2.173288,-0.351408 c -0.17969,-0.01791 -0.567809,-0.05002 -0.862437,-0.07133 -0.756317,-0.05467 -0.791744,-0.06295 -0.335849,-0.07823 0.209663,-0.007 0.654956,-0.02585 0.989512,-0.04201 l 0.608238,-0.02929 0.717176,0.05635 c 0.842225,0.06618 1.454771,0.11004 1.541823,0.110382 0.105427,0 0.05413,0.01582 -0.18103,0.05419 -0.208329,0.034 -0.301318,0.03669 -1.188334,0.03474 -0.780744,-0.0013 -1.023948,-0.0083 -1.289099,-0.0348 m 8.687906,-0.363343 c 0,-0.03044 -0.01589,-0.199955 -0.03534,-0.37677 -0.01946,-0.176767 -0.04101,-0.381381 -0.04793,-0.454656 -0.0097,-0.103091 -0.02262,-0.145112 -0.05702,-0.186033 -0.03279,-0.03905 -0.03811,-0.05508 -0.0202,-0.06119 0.0443,-0.01514 0.240531,-0.06295 0.242611,-0.05911 0.0034,0.007 -0.0245,0.745567 -0.03709,0.97064 -0.0069,0.122322 -0.01979,0.2224 -0.02875,0.2224 -0.0089,0 -0.01636,-0.02491 -0.01636,-0.05527 m -2.124692,-0.08541 c 0,-0.0075 -0.0091,-0.07079 -0.01966,-0.140701 -0.01113,-0.07333 -0.02444,-0.645738 -0.03138,-1.352465 l -0.01211,-1.225389 -0.23443,-0.04962 c -0.128961,-0.02727 -0.255592,-0.05729 -0.281458,-0.06686 -0.04101,-0.01501 -0.03528,-0.01743 0.04376,-0.01872 0.09027,-0.0013 0.427605,-0.0507 0.441225,-0.0643 0.004,-0.004 -0.03649,-0.02585 -0.08992,-0.04868 -0.197624,-0.08447 -0.459558,-0.22022 -0.439246,-0.227651 0.0115,-0.004 0.141396,-0.02148 0.288588,-0.03844 l 0.267628,-0.03084 -0.0034,-0.778166 c -0.0034,-0.575491 0.0021,-0.801204 0.01899,-0.866946 0.02094,-0.0817 0.01993,-0.09107 -0.01245,-0.115533 -0.01939,-0.01468 -0.03945,-0.02686 -0.04457,-0.02727 -0.0054,0 -0.0092,0.254798 -0.0091,0.566814 0,0.503454 -0.0034,0.573855 -0.03104,0.624685 -0.03461,0.06328 -0.106761,0.112511 -0.234485,0.159924 -0.105122,0.03911 -0.142681,0.02242 -0.195498,-0.08665 -0.03723,-0.07684 -0.03871,-0.115337 -0.0589,-1.457391 l -0.02074,-1.3784792 0.04128,-0.09547 c 0.06551,-0.1513054 0.279324,-0.2903713 0.37098,-0.2412712 0.101758,0.054402 0.101513,0.052114 0.113991,1.0091299 l 0.01162,0.8830495 0.184847,-0.01253 0.184893,-0.01266 0.0115,0.169927 c 0.0061,0.09344 0.0171,1.066061 0.0239,2.161306 0.0115,1.849079 0.01015,1.994783 -0.01824,2.038133 -0.03305,0.0505 -0.110921,0.06274 -0.176175,0.02787 -0.0338,-0.01811 -0.03507,-0.01077 -0.03521,0.195194 0,0.268868 -0.01866,0.513512 -0.03891,0.513512 -0.0084,0 -0.01568,-0.0061 -0.01589,-0.0136 h -2.02e-4 M 11.4731,14.324242 c -0.0054,-0.172257 -0.0132,-1.092908 -0.01838,-2.045863 -0.0054,-0.953001 -0.01393,-1.737111 -0.01932,-1.742518 -0.04026,-0.04026 -0.04585,0.106369 -0.03628,0.969557 0.0054,0.509346 0.01541,1.422369 0.02189,2.029018 0.0097,0.912721 0.01595,1.103014 0.03642,1.103014 0.02026,0 0.0231,-0.05669 0.01568,-0.313208 m 3.685575,0.05783 c -0.86348,-0.08832 -1.402306,-0.454152 -1.522595,-1.033804 -0.01555,-0.07486 -0.04928,-0.270948 -0.07505,-0.435726 -0.02579,-0.164783 -0.05137,-0.322774 -0.05702,-0.351111 l -0.01028,-0.0515 0.18791,0.01199 c 0.771729,0.04922 1.578683,0.268969 2.210794,0.601795 0.481311,0.253457 0.79843,0.55324 0.800018,0.756365 0.0013,0.138676 -0.141449,0.286359 -0.359533,0.372562 -0.289079,0.114248 -0.786588,0.169093 -1.17431,0.129404 v 0 m 0.432506,-0.218038 c 0.03817,-0.01052 0.101024,-0.04787 0.139658,-0.08273 0.09468,-0.08556 0.133222,-0.191385 0.123811,-0.339714 -0.0089,-0.139713 -0.06632,-0.239535 -0.18187,-0.315935 -0.06355,-0.04215 -0.09498,-0.05008 -0.196339,-0.05008 -0.101305,0 -0.132826,0.008 -0.196339,0.05008 -0.173846,0.115043 -0.231113,0.31782 -0.143773,0.508658 0.04793,0.104632 0.136144,0.188907 0.235475,0.224925 0.07595,0.02754 0.132973,0.02875 0.219377,0.0048 v 1.48e-4 M 2.948978,14.356884 c -0.01622,-0.01959 -0.02275,-0.214422 -0.02485,-0.750568 -0.0034,-0.811263 -0.01239,-0.756071 0.135989,-0.831232 0.108548,-0.055 0.139066,-0.05521 0.159681,-0.0013 0.02074,0.0546 0.03157,1.483755 0.0115,1.516252 -0.02081,0.03373 -0.154974,0.09225 -0.212544,0.09269 -0.02625,0 -0.05763,-0.0115 -0.06971,-0.02612 v 0 m 17.919929,-0.04699 c -0.160468,-0.01987 -0.424979,-0.09259 -0.528027,-0.145166 -0.0916,-0.04672 -0.210753,-0.15348 -0.24484,-0.219371 -0.03918,-0.0758 -0.03198,-0.187028 0.01866,-0.287004 0.162696,-0.321032 0.882802,-0.75607 1.590269,-0.960777 0.207043,-0.05992 0.575834,-0.140602 0.586788,-0.128416 0.0082,0.0092 0.0982,0.768552 0.113942,0.961719 0.01589,0.194704 -0.02189,0.315094 -0.134508,0.429539 -0.252716,0.256729 -0.882707,0.413777 -1.402306,0.349476 m 0.522106,-0.284057 c 0.10166,-0.0822 0.135943,-0.153878 0.145657,-0.304786 0.03332,-0.518728 -0.507131,-0.569506 -0.669723,-0.218333 -0.04013,0.08665 -0.04511,0.257126 -0.0099,0.341 0.09567,0.228392 0.363641,0.319798 0.533971,0.18212 v 0 M 3.455133,14.208624 c -0.01932,-0.02329 -0.02431,-0.186382 -0.02491,-0.806704 l -5.45e-4,-0.777526 0.05258,-0.055 c 0.05225,-0.05467 0.187714,-0.129156 0.234781,-0.129156 0.06255,0 0.0704,0.0866 0.08036,0.882008 0.0098,0.781289 0.0097,0.782083 -0.02896,0.81815 -0.0377,0.03515 -0.204613,0.09735 -0.26099,0.09735 -0.01541,0 -0.03884,-0.01307 -0.05212,-0.02915 h -2.01e-4 m 0.606453,-0.148531 c -0.05413,-0.03434 -0.06011,-0.127668 -0.06011,-0.921345 v -0.806169 l 0.05238,-0.05965 c 0.02881,-0.03279 0.110676,-0.08788 0.181965,-0.12237 l 0.129458,-0.06261 0.04053,0.04046 c 0.04032,0.04026 0.04059,0.04416 0.05279,0.861548 0.0067,0.451627 0.008,0.847375 0.0027,0.879482 -0.0054,0.03211 -0.02006,0.06699 -0.03279,0.07758 -0.01643,0.0136 -0.331836,0.130105 -0.344123,0.127028 -4.98e-4,0 -0.01089,-0.0067 -0.02269,-0.01393 h 4.6e-5 m 0.671106,-0.252717 c -0.02975,-0.04537 -0.03225,-0.11826 -0.03225,-0.952011 v -0.902764 l 0.05029,-0.05265 c 0.02767,-0.02888 0.120047,-0.08832 0.205206,-0.132124 0.166764,-0.08576 0.182221,-0.08561 0.248064,0.0027 0.0309,0.04134 0.03413,0.110676 0.0447,0.955035 0.01028,0.82122 0.0086,0.914909 -0.01804,0.955432 -0.02187,0.0334 -0.07981,0.06167 -0.225423,0.110235 -0.107703,0.03588 -0.205899,0.06524 -0.218131,0.06524 -0.01226,0 -0.03669,-0.02208 -0.0544,-0.04908 v 1.01e-4 M 2.487783,13.636469 c -0.01474,-0.07357 -0.01468,-0.394167 4.7e-5,-0.467787 0.01293,-0.06443 0.08873,-0.09963 0.117417,-0.0544 0.0088,0.0138 0.01603,0.149718 0.01622,0.302013 v 0.276892 h -0.06126 c -0.05413,0 -0.06261,-0.0067 -0.07263,-0.05669 h 2.5e-4 m 3.100826,-0.09042 c -0.03272,-0.03609 -0.03534,-0.08892 -0.04773,-0.939629 -0.0072,-0.495773 -0.0086,-0.940069 -0.0034,-0.987432 0.01636,-0.136939 0.06503,-0.188657 0.297454,-0.316231 0.114798,-0.06301 0.225719,-0.114737 0.246475,-0.114884 0.05561,0 0.118456,0.07694 0.127472,0.1568 0.004,0.03844 0.01549,0.485917 0.02477,0.994372 0.01858,1.022117 0.01939,1.012557 -0.09264,1.080676 -0.06201,0.0377 -0.439347,0.164582 -0.489429,0.164582 -0.01589,0 -0.0445,-0.01724 -0.06349,-0.03824 h 2.96e-4 M 6.719937,13.18933 c -0.01589,-0.01751 -0.03663,-0.05225 -0.04605,-0.07723 -0.01549,-0.04066 -0.03797,-0.948194 -0.04524,-1.824607 -0.0034,-0.461093 -0.01239,-0.447816 0.438802,-0.687554 0.27521,-0.146201 0.280063,-0.147838 0.338474,-0.109587 0.10166,0.06659 0.1027,0.07495 0.11886,0.932003 0.0082,0.435079 0.01993,0.931396 0.02598,1.102818 0.0163,0.459459 0.0095,0.469517 -0.408627,0.60531 -0.300873,0.0977 -0.377416,0.108401 -0.4222,0.05884 v 0 M 22.651739,12.856834 C 22.486167,12.156596 22.350616,11.4899 22.284725,11.051448 22.107957,9.8749562 21.97285,9.1613416 21.776316,8.3658403 21.726771,8.1652391 21.681789,7.9806955 21.676443,7.9557246 l -0.0098,-0.045374 0.02,0.045374 c 0.04389,0.099727 0.273425,0.8859186 0.368399,1.2618528 0.33412,1.3232806 0.537938,2.4574666 0.648115,3.6065106 0.01211,0.126132 0.01845,0.240033 0.01414,0.25306 -0.004,0.01307 -0.03386,-0.0861 -0.06557,-0.220314 m -10.040768,-0.04679 c -0.24756,-0.495032 -0.532181,-1.13572 -0.623891,-1.404534 -0.247162,-0.724563 -0.588566,-2.2410642 -0.621212,-2.7597808 -0.0084,-0.1332684 -0.0075,-0.1419333 0.008,-0.063553 0.09458,0.4865623 0.223437,0.9756422 0.437665,1.6613168 0.179244,0.573849 0.765926,2.335737 0.866993,2.60381 0.04107,0.108902 0.07105,0.201692 0.06659,0.206202 -0.0048,0.0048 -0.06476,-0.105085 -0.134064,-0.243452 m -4.446304,-0.06544 c -0.06638,-0.07292 -0.0743,-0.10944 -0.08595,-0.394954 C 8.048839,11.61028 8.032009,10.264404 8.051669,10.172803 8.089099,9.9984118 8.141729,9.9532301 8.585688,9.7140386 8.805213,9.595827 9.002738,9.4990705 9.024584,9.4990705 c 0.02189,0 0.06436,0.020736 0.09438,0.045912 0.104877,0.08824 0.109195,0.1223758 0.129405,1.0162735 0.01015,0.449352 0.02329,1.029449 0.02915,1.2891 0.01015,0.444942 0.0088,0.475709 -0.0245,0.535608 -0.01945,0.03494 -0.06713,0.08199 -0.106027,0.104584 -0.08696,0.05035 -0.830585,0.294828 -0.896974,0.294828 -0.02673,0 -0.06463,-0.01811 -0.08526,-0.0408 m 13.112658,-1.188134 c -0.08988,-0.0027 -0.604569,-0.01326 -1.143847,-0.02337 -1.127143,-0.02121 -4.211763,-0.08214 -5.519593,-0.109097 -0.489336,-0.01015 -0.976336,-0.01838 -1.082311,-0.01845 h -0.192569 l -0.04726,-0.240578 c -0.07367,-0.37514 -0.16205,-0.886767 -0.154422,-0.894348 0.0034,-0.0034 0.436768,0.0027 0.962265,0.0138 l 0.955431,0.02054 0.228836,-0.113502 c 0.125844,-0.06255 0.228789,-0.11514 0.228789,-0.117012 0,-0.0021 -0.0974,-0.0034 -0.216354,-0.0034 -0.185829,0 -0.213325,-0.0034 -0.195147,-0.02606 0.01162,-0.01441 0.121233,-0.1408509 0.243553,-0.2810606 l 0.222448,-0.2548441 0.213331,0.00538 c 0.117319,0.00343 0.401242,0.012662 0.630927,0.021873 0.615018,0.024638 0.75349,0.023023 0.75349,-0.00856 0,-0.0373 -0.034,-0.043221 -0.317765,-0.054671 -0.139806,-0.00538 -0.463523,-0.019255 -0.719357,-0.030302 -0.432858,-0.018644 -0.468627,-0.017836 -0.513856,0.011866 -0.02673,0.017506 -0.175232,0.1694831 -0.330059,0.3376803 l -0.281397,0.3058764 0.06476,0.03084 c 0.06052,0.02888 0.08075,0.07799 0.02558,0.062 -0.0138,-0.004 -0.09691,-0.01113 -0.184894,-0.01589 l -0.159923,-0.0087 0.03736,-0.03972 c 0.02053,-0.02189 0.03736,-0.04847 0.03736,-0.05917 0,-0.01313 -0.186677,-0.02337 -0.57648,-0.03165 -0.317072,-0.0069 -0.694979,-0.01791 -0.839747,-0.02485 L 13.143298,9.9985175 13.085128,9.7080043 C 13.053148,9.5482762 12.935311,8.9599601 12.823289,8.4007215 12.711231,7.8415291 12.616151,7.3319824 12.611944,7.268374 12.601914,7.1149882 12.639404,7.0198181 12.75136,6.915135 12.950964,6.728457 13.317682,6.6060877 14.061168,6.478016 14.616691,6.382354 15.37548,6.2889144 15.429434,6.3096235 c 0.01501,0.00606 0.03951,0.053793 0.05433,0.106662 0.05177,0.1844494 0.35577,1.3365159 0.35577,1.3483045 0,0.00673 -0.0061,0.00828 -0.0136,0.00336 -0.01993,-0.011854 -0.767415,-0.054264 -0.777573,-0.044165 -0.0048,0.00471 -0.0034,0.021342 0.0021,0.036894 0.01174,0.030632 0.08902,0.03898 0.555072,0.059986 l 0.247269,0.011108 0.02175,0.072676 c 0.01199,0.039991 0.01919,0.074367 0.01603,0.076447 -0.0034,0.00208 -0.09973,-0.00208 -0.214617,-0.0093 -0.114786,-0.00722 -0.292054,-0.013799 -0.393917,-0.014607 l -0.185136,-0.00135 0.02485,0.086258 c 0.0136,0.047466 0.07971,0.3272795 0.146843,0.6218578 0.06705,0.2946333 0.127028,0.5414046 0.133174,0.5484878 0.0061,0.0071 0.08467,0.01528 0.174485,0.018106 l 0.163243,0.00538 -0.118003,0.1099784 c -0.0649,0.060531 -0.244692,0.2281973 -0.399418,0.3726618 -0.154819,0.1444657 -0.301412,0.2765976 -0.325743,0.2935902 -0.04847,0.0338 -0.04739,0.03951 0.01101,0.05742 0.03326,0.01028 0.09878,-0.04773 0.426664,-0.3775629 0.213029,-0.2143222 0.456831,-0.4657997 0.541701,-0.5589902 0.185635,-0.2036241 0.541944,-0.5654336 0.506619,-0.5144006 -0.0138,0.020002 -0.122916,0.1425328 -0.242511,0.2723342 -0.310333,0.3369867 -0.308058,0.3343149 -0.294727,0.3476384 0.01003,0.010154 1.265266,0.079077 1.278596,0.070305 0.0021,-0.00135 -0.0276,-0.1493199 -0.06651,-0.3283694 -0.03891,-0.1790973 -0.0802,-0.3725615 -0.09175,-0.4299766 l -0.02108,-0.1044367 h -0.0712 c -0.03918,0 -0.130643,-0.02054 -0.203321,-0.045643 -0.07258,-0.025042 -0.168695,-0.052848 -0.213479,-0.061534 -0.06301,-0.012319 -0.02074,-0.016356 0.187613,-0.01791 0.247021,-0.00208 0.268275,-0.00477 0.260048,-0.033728 -0.0054,-0.017506 -0.01414,-0.073021 -0.02054,-0.1234596 -0.0067,-0.050365 -0.01716,-0.1002285 -0.02396,-0.1106758 -0.0073,-0.011132 -0.156604,-0.025788 -0.360422,-0.035416 -0.191431,-0.00905 -0.353139,-0.021543 -0.359433,-0.027868 -0.0061,-0.00612 -0.01622,-0.041471 -0.02222,-0.078367 l -0.01089,-0.066988 0.270356,0.010912 c 0.14878,0.00606 0.309248,0.014946 0.356659,0.019928 0.06686,0.00707 0.08626,0.00336 0.08626,-0.016763 0,-0.014206 -0.01126,-0.030162 -0.02491,-0.035412 -0.01374,-0.00538 -0.177757,-0.015485 -0.364583,-0.022823 l -0.339667,-0.013196 -0.01864,-0.047261 c -0.03036,-0.076885 -0.396091,-1.4604135 -0.388166,-1.4683443 0.004,-0.00404 0.259206,-0.011585 0.567061,-0.016898 0.623299,-0.010704 1.310954,0.023295 1.712795,0.084869 0.615266,0.09418 1.426185,0.3046845 2.239972,0.5814294 0.486111,0.1652753 0.637658,0.2411771 0.79392,0.3974309 0.2382,0.2381544 0.28254,0.3727566 0.805417,2.4424049 0.06537,0.2587083 0.118848,0.4849733 0.118848,0.5028073 0,0.02956 -0.01643,0.03171 -0.186133,0.0239 -0.363445,-0.0167 -1.363756,-0.04336 -1.370595,-0.03655 -0.0034,0.0034 0.04053,0.03373 0.09854,0.06651 0.05803,0.03272 0.142236,0.08467 0.18717,0.115385 l 0.08174,0.05594 0.626166,0.01811 0.626174,0.0181 0.06638,0.43578 c 0.03655,0.239683 0.07169,0.474565 0.07803,0.521981 l 0.01162,0.08625 -0.350122,-0.0034 c -0.192569,-0.0021 -0.423687,-0.0061 -0.513559,-0.0088 l 2.02e-4,2.96e-4 m -1.498003,-0.869033 c 0,-0.334515 -0.01549,-0.352451 -0.304091,-0.352996 -0.10429,0 -0.140797,0.01716 -0.09532,0.04524 0.01064,0.0067 0.0181,0.114199 0.0181,0.261334 0,0.137531 0.0054,0.255544 0.01211,0.262182 0.0067,0.0067 0.0924,0.01211 0.190643,0.01211 h 0.178499 v -0.227846 m -1.499852,0.162846 c 0.02222,-0.05783 0.0115,-0.425223 -0.01407,-0.486509 -0.0237,-0.05675 -0.03165,-0.06086 -0.138864,-0.07208 -0.06255,-0.0067 -0.170628,-0.01187 -0.240235,-0.01187 h -0.12653 l 0.02935,0.04477 c 0.02337,0.03561 0.02935,0.09482 0.02935,0.28928 v 0.244591 l 0.04995,0.0076 c 0.02746,0.004 0.128712,0.0088 0.225026,0.01028 0.14456,0.0021 0.176963,-0.0027 0.186079,-0.02598 v 0 m -1.541785,-0.250558 c 0.01326,-0.230231 0.007,-0.266694 -0.05917,-0.342495 -0.0231,-0.02646 -0.05938,-0.03178 -0.21744,-0.03178 -0.173743,0 -0.18871,0.0027 -0.176518,0.03178 0.03272,0.07813 0.04343,0.189304 0.03313,0.343827 -0.0061,0.0917 -0.0061,0.179495 0,0.195147 0.0091,0.02337 0.04599,0.02841 0.209015,0.02841 h 0.198124 l 0.01286,-0.224871 m 3.876904,-0.470882 c -0.05494,-0.02269 -0.181574,-0.09305 -0.281451,-0.1563073 -0.09989,-0.063357 -0.27962,-0.1751862 -0.399417,-0.2487519 L 19.715942,9.590802 19.044144,9.5632645 c -0.369485,-0.015218 -0.843316,-0.035416 -1.05308,-0.045043 -0.209663,-0.00966 -0.395546,-0.017775 -0.412983,-0.017971 -0.01966,0 -0.03184,0.013126 -0.03184,0.035012 0,0.048334 0.01656,0.050023 0.717183,0.072875 0.329555,0.010765 0.783019,0.028406 1.007696,0.039184 l 0.408525,0.019659 0.299588,0.1865767 c 0.34848,0.2170958 0.465504,0.2785768 0.569298,0.2991378 0.145354,0.02875 0.170621,0.01987 0.06618,-0.02329 M 20.896659,9.4043964 C 20.883055,9.3619834 20.809215,9.0902924 20.732374,8.8007163 20.655524,8.511139 20.587363,8.2689724 20.580919,8.2625364 20.5686,8.2502784 20.436353,8.2417274 18.9261,8.155971 18.401835,8.126146 17.846265,8.093764 17.691493,8.084039 17.536673,8.074249 17.356734,8.066129 17.291484,8.06586 h -0.118506 l 0.147193,0.5855489 c 0.08095,0.3220754 0.152544,0.6067985 0.159081,0.632704 0.0136,0.054402 -0.05669,0.048139 1.092814,0.098002 1.123824,0.048811 1.851213,0.08249 1.906453,0.088387 0.02996,0.00343 0.141786,0.0071 0.248555,0.00856 l 0.194058,0.00343 -0.0245,-0.07778 m -0.35458,-1.3382014 c 0,-0.0235 -0.07536,-0.033324 -0.354081,-0.04645 -0.129801,-0.00612 -0.366764,-0.018644 -0.52654,-0.028076 -0.159774,-0.0093 -0.511135,-0.029287 -0.780743,-0.044297 -0.628948,-0.035012 -1.34885,-0.077484 -1.575061,-0.093043 -0.153634,-0.010508 -0.177064,-0.00834 -0.177064,0.016225 0,0.034403 0.06409,0.041404 0.626416,0.06797 0.219721,0.010398 0.611901,0.03084 0.871558,0.045374 0.259598,0.014546 0.704889,0.038915 0.989511,0.053998 0.284623,0.015084 0.554237,0.030094 0.59917,0.033324 0.18663,0.013334 0.326834,0.011132 0.326834,-0.00538 v 0 M 16.997062,7.4979252 c -0.02148,-0.032518 -0.04511,-0.041269 -0.115679,-0.042818 -0.07858,-0.00135 -0.0801,-0.00135 -0.01347,0.00538 0.04389,0.00404 0.08853,0.02215 0.107213,0.042751 0.04322,0.047734 0.05514,0.044771 0.02195,-0.00538 v 0 m -0.416558,0.9362571 c 0.01313,-0.00538 0.02875,-0.00477 0.0348,0.00135 0.0061,0.00612 -0.0048,0.010276 -0.02383,0.00954 -0.02114,-0.00135 -0.02545,-0.00538 -0.01101,-0.01101 V 8.433895 M 16.220748,8.4073 C 16.011679,8.387983 16.009699,8.387298 15.999539,8.334169 c -0.0078,-0.041202 -0.0048,-0.042352 0.109746,-0.039379 0.09923,0.00269 0.122814,0.00942 0.148875,0.044102 0.02356,0.031305 0.06309,0.04645 0.164777,0.063283 0.109746,0.018105 0.119055,0.02202 0.05198,0.021616 -0.04497,0 -0.159283,-0.00771 -0.254158,-0.01643 v 0 M 15.912062,7.9675158 c 0,-0.013738 -0.0054,-0.050561 -0.01126,-0.081744 l -0.01138,-0.056687 h 0.08338 c 0.08834,0 0.103984,0.013936 0.127768,0.1135017 0.01187,0.049827 0.01187,0.049888 -0.08824,0.049888 -0.07292,0 -0.100216,-0.00685 -0.100216,-0.024907 v 0 m -0.0784,-0.3608691 C 15.807794,7.5143494 15.749694,7.2958133 15.70441,7.1210789 15.65917,6.9462906 15.590761,6.6915473 15.552309,6.5549524 c -0.06881,-0.2445906 -0.06931,-0.248455 -0.03211,-0.2584594 0.08268,-0.022217 0.133168,-0.01172 0.145355,0.030229 0.01958,0.067574 0.359284,1.3630149 0.368945,1.4071058 0.0082,0.037635 0.0027,0.040866 -0.07239,0.040866 h -0.0814 l -0.047,-0.167995 m -0.476433,-1.3652 c -0.0348,-0.025988 -0.0348,-0.026997 0.0013,-0.093588 l 0.03628,-0.067331 0.177017,-0.00807 c 0.09735,-0.00471 0.177017,-0.00269 0.177017,0.00471 0,0.007 -0.02039,0.037028 -0.04537,0.066719 -0.02498,0.029623 -0.04545,0.064564 -0.04545,0.077632 0,0.049686 -0.239286,0.065575 -0.300572,0.019928 v 5.38e-5 m 1.580656,-0.2472228 c -0.03992,-0.00821 -0.148128,-0.015485 -0.240531,-0.016023 -0.185385,-0.00135 -0.193612,-0.00774 -0.139854,-0.1116715 0.0866,-0.1674027 0.340408,-0.1639355 0.4441,0.00606 0.03542,0.058236 0.04922,0.1428832 0.02256,0.1388168 -0.0076,-0.00135 -0.04632,-0.00888 -0.08631,-0.017168 v 0"
       id="path90"
       style="fill:url(#linearGradient25);fill-opacity:1;stroke-width:0.0495427"
       sodipodi:nodetypes="ccsscccccsccccccccccccsccccsccccccccscccccsccsccscsscscccccscccccsccsscsscccccscccsccccccccccccssscsscccsccsccccccscccccccccccsscccccscccscccccccccccccccccccccccccccccccccccccscccccccsccccccssccscccscscccccccccccccccscscsccccccccccccccsccccsccccccsccccccccccccsccsscsccccscccccccccscscccsccccccccccccccsccccscccccccscccccccsccccccccccccccccccccscccccscccsccccccccccscccccccccsccccccccccccccccscsscccccccscccccscccsccccsccccscccccscscccccccccccccscsccccscscccsccccccccccccsccccccccccscccccccccsccccccccccccscssccccccccscccscsccssccscccccccccccsccscssccccccccsccccscccscccssccccccccccsccccsccccsccsscsccsccssscccsccccscccscccccsssccccsccccscsscccccccccccccccscccccccsccccccccscccccccsccscccsccsccsccccscscccscccccsssccccscsscccssscccccccccccccssccscccccccsccscccccccccssscsccccccccccccccccssssccscsccccssccccsscccccsscccssccccccsccccscscccscccccccccscccssccccccccsccccccccssccscccccscccccccccccccccccccccccccscccccccsccccscscccscccccsccsccccccccsccsccsccccccscscccccsscscccsccccccccccccsccccsccscccccccscccscscccsscccccccscssccccccccccccccccsccccscscscccscccccccccccsscccccsccccccccccscccsccccccscccccccscccccccccccccccccsccsccccccscscccsccccscccccsccccccccccccccccscscccccsccscccsccsscscscccccccccscccccccscccccccccccccscscsccscscccccsccccccccccccsccccscsscccccccsccccccscsccccsccsc" /><path
       style="fill:#cccccc;fill-opacity:1;stroke:none;stroke-width:0.264583;stroke-linecap:round;stroke-linejoin:round;stroke-dasharray:none;paint-order:stroke markers fill"
       d="m 18.650259,8.1272448 0.327884,1.2876791 0.153204,0.00736 -0.341801,-1.2875411 z"
       id="path42" /></g></svg>
